<svg width="204" height="88" viewBox="0 0 204 88" fill="none" xmlns="http://www.w3.org/2000/svg">
<path d="M15.2426 19C14.1206 19 13.2933 18.7507 12.7606 18.252C12.2393 17.7533 11.9786 16.926 11.9786 15.77V6.42H13.7976V15.532C13.7976 16.0193 13.8996 16.348 14.1036 16.518C14.319 16.688 14.6816 16.773 15.1916 16.773H15.7186V18.541L15.2596 19H15.2426ZM15.2627 17.232L15.7217 16.773H16.2487C17.178 16.773 17.6427 16.348 17.6427 15.498V12.999H19.3087V15.498C19.3087 16.348 19.7337 16.773 20.5837 16.773H21.2297V18.541L20.7707 19C19.898 19 19.2293 18.83 18.7647 18.49C18.3 18.15 17.9883 17.6173 17.8297 16.892H17.7447C17.5973 17.64 17.331 18.1783 16.9457 18.507C16.5717 18.8357 16.0107 19 15.2627 19V17.232ZM19.5977 22.57C19.3257 22.57 19.099 22.485 18.9177 22.315C18.7477 22.1563 18.6627 21.8957 18.6627 21.533C18.6627 21.159 18.7477 20.887 18.9177 20.717C19.099 20.5583 19.3257 20.479 19.5977 20.479H19.8867C20.1587 20.479 20.3797 20.5583 20.5497 20.717C20.731 20.887 20.8217 21.159 20.8217 21.533C20.8217 21.8957 20.731 22.1563 20.5497 22.315C20.3797 22.485 20.1587 22.57 19.8867 22.57H19.5977ZM17.0647 22.57C16.7927 22.57 16.566 22.485 16.3847 22.315C16.2147 22.1563 16.1297 21.8957 16.1297 21.533C16.1297 21.159 16.2147 20.887 16.3847 20.717C16.566 20.5583 16.7927 20.479 17.0647 20.479H17.3537C17.6257 20.479 17.8467 20.5583 18.0167 20.717C18.198 20.887 18.2887 21.159 18.2887 21.533C18.2887 21.8957 18.198 22.1563 18.0167 22.315C17.8467 22.485 17.6257 22.57 17.3537 22.57H17.0647ZM20.7744 17.232L21.2334 16.773H23.0524V18.541L22.5934 19H20.7744V17.232ZM22.6006 17.232L23.0596 16.773H24.8786V18.541L24.4196 19H22.6006V17.232ZM24.4267 17.232L24.8857 16.773H26.7047V18.541L26.2457 19H24.4267V17.232ZM26.2529 17.232L26.7119 16.773H28.5309V18.541L28.0719 19H26.2529V17.232ZM28.0791 17.232L28.5381 16.773H30.3571V18.541L29.8981 19H28.0791V17.232ZM29.9053 17.232L30.3643 16.773H32.1833V18.541L31.7243 19H29.9053V17.232ZM31.7314 17.232L32.1904 16.773H34.0094V18.541L33.5504 19H31.7314V17.232ZM33.5576 17.232L34.0166 16.773H35.8356V18.541L35.3766 19H33.5576V17.232ZM35.3838 17.232L35.8428 16.773H37.6618V18.541L37.2028 19H35.3838V17.232ZM37.2099 17.232L37.6689 16.773H39.4879V18.541L39.0289 19H37.2099V17.232ZM39.0361 17.232L39.4951 16.773H41.3141V18.541L40.8551 19H39.0361V17.232ZM40.8623 17.232L41.3213 16.773H43.1403V18.541L42.6813 19H40.8623V17.232ZM42.6885 17.232L43.1475 16.773H44.9665V18.541L44.5075 19H42.6885V17.232ZM44.5146 17.232L44.9736 16.773H46.7926V18.541L46.3336 19H44.5146V17.232ZM46.3408 17.232L46.7998 16.773H48.6188V18.541L48.1598 19H46.3408V17.232ZM48.167 17.232L48.626 16.773H50.445V18.541L49.986 19H48.167V17.232ZM49.9931 17.232L50.4521 16.773H52.2711V18.541L51.8121 19H49.9931V17.232ZM51.8193 17.232L52.2783 16.773H54.0973V18.541L53.6383 19H51.8193V17.232ZM53.6455 17.232L54.1045 16.773H55.9235V18.541L55.4645 19H53.6455V17.232ZM55.4717 17.232L55.9307 16.773H57.7497V18.541L57.2907 19H55.4717V17.232ZM57.2978 17.232L57.7568 16.773H59.5758V18.541L59.1168 19H57.2978V17.232ZM59.124 17.232L59.583 16.773H61.402V18.541L60.943 19H59.124V17.232ZM60.9502 17.232L61.4092 16.773H63.2282V18.541L62.7692 19H60.9502V17.232ZM62.7764 17.232L63.2354 16.773H65.0544V18.541L64.5954 19H62.7764V17.232ZM64.6025 17.232L65.0615 16.773H66.8805V18.541L66.4215 19H64.6025V17.232ZM66.4287 17.232L66.8877 16.773H68.7067V18.541L68.2477 19H66.4287V17.232ZM68.2549 17.232L68.7139 16.773H70.5329V18.541L70.0739 19H68.2549V17.232ZM70.081 17.232L70.54 16.773H72.359V18.541L71.9 19H70.081V17.232ZM71.9072 17.232L72.3662 16.773H74.1852V18.541L73.7262 19H71.9072V17.232ZM73.7334 17.232L74.1924 16.773H76.0114V18.541L75.5524 19H73.7334V17.232ZM75.5596 17.232L76.0186 16.773H77.8376V18.541L77.3786 19H75.5596V17.232ZM77.3857 17.232L77.8447 16.773H79.6637V18.541L79.2047 19H77.3857V17.232ZM79.2119 17.232L79.6709 16.773H81.4899V18.541L81.0309 19H79.2119V17.232ZM81.0381 17.232L81.4971 16.773H83.3161V18.541L82.8571 19H81.0381V17.232ZM85.2952 18.031C85.0346 18.3937 84.7172 18.6487 84.3432 18.796C83.9692 18.932 83.4762 19 82.8642 19V17.232L83.3232 16.773C83.7539 16.773 84.0656 16.6937 84.2582 16.535C84.4509 16.3763 84.6209 16.1043 84.7682 15.719L85.2442 14.529C85.3802 14.1777 85.5389 13.849 85.7202 13.543C85.9016 13.237 86.1112 12.9763 86.3492 12.761C86.5872 12.5343 86.8592 12.3587 87.1652 12.234C87.4712 12.1093 87.8226 12.047 88.2192 12.047C89.2052 12.047 89.9589 12.455 90.4802 13.271C91.0016 14.087 91.2622 15.2147 91.2622 16.654V17.249L89.8342 19.374L85.2952 18.031ZM86.1452 15.974L89.6472 17.011V16.654C89.6472 15.906 89.4829 15.328 89.1542 14.92C88.8369 14.5007 88.4062 14.291 87.8622 14.291C87.4656 14.291 87.1426 14.3987 86.8932 14.614C86.6439 14.8293 86.4456 15.141 86.2982 15.549L86.1452 15.974ZM92.4333 20.853H93.5553C95.0059 20.853 96.0713 20.581 96.7513 20.037C97.4313 19.5043 97.7713 18.7903 97.7713 17.895V17.47H97.6693C97.5106 17.9913 97.2386 18.3823 96.8533 18.643C96.4793 18.8923 96.0146 19.017 95.4593 19.017C94.5413 19.017 93.8273 18.7563 93.3173 18.235C92.8073 17.7137 92.5523 16.9827 92.5523 16.042C92.5523 15.4753 92.6373 14.9483 92.8073 14.461C92.9773 13.9737 93.2096 13.5487 93.5043 13.186C93.8103 12.8233 94.1673 12.54 94.5753 12.336C94.9946 12.132 95.4479 12.03 95.9353 12.03C97.0006 12.03 97.8336 12.472 98.4343 13.356C99.0349 14.24 99.3353 15.4697 99.3353 17.045C99.3353 17.997 99.2163 18.8413 98.9783 19.578C98.7403 20.326 98.3833 20.9607 97.9073 21.482C97.4313 22.0033 96.8363 22.4 96.1223 22.672C95.4196 22.944 94.6036 23.08 93.6743 23.08H92.4333V20.853ZM95.9353 16.773C96.3999 16.773 96.7739 16.7503 97.0573 16.705C97.3519 16.6483 97.5843 16.5577 97.7543 16.433C97.7316 15.7757 97.5333 15.2487 97.1593 14.852C96.7853 14.4553 96.3149 14.257 95.7483 14.257C95.2609 14.257 94.8643 14.3987 94.5583 14.682C94.2636 14.9653 94.1163 15.3223 94.1163 15.753C94.1163 16.1157 94.2409 16.3763 94.4903 16.535C94.7396 16.6937 95.1023 16.773 95.5783 16.773H95.9353ZM101.182 8.494H103.001V19H101.182V8.494ZM100.162 5.859H100.842L100.859 5.791C100.643 5.54167 100.536 5.24133 100.536 4.89C100.536 4.42533 100.7 4.04 101.029 3.734C101.369 3.428 101.794 3.275 102.304 3.275C102.61 3.275 102.91 3.343 103.205 3.479C103.511 3.615 103.76 3.79633 103.953 4.023L103.188 5.06C102.927 4.788 102.632 4.652 102.304 4.652C102.111 4.652 101.952 4.703 101.828 4.805C101.703 4.89567 101.641 5.009 101.641 5.145C101.641 5.553 102.037 5.757 102.831 5.757H104.038V7.134H100.162V5.859ZM116.505 19C115.473 18.9887 114.725 18.7563 114.261 18.303C113.807 17.8497 113.581 17.181 113.581 16.297V16.161H113.479C113.309 16.875 113.048 17.3793 112.697 17.674C112.357 17.9573 111.864 18.099 111.218 18.099C110.424 18.099 109.818 17.8893 109.399 17.47C108.991 17.0393 108.787 16.433 108.787 15.651C108.787 14.801 109.03 14.0983 109.518 13.543C110.016 12.9877 110.725 12.472 111.643 11.996L113.496 11.044V10.126H115.281V15.77C115.281 16.144 115.366 16.4047 115.536 16.552C115.717 16.6993 116.017 16.773 116.437 16.773H116.964V18.541L116.505 19ZM111.694 15.872C112.362 15.872 112.827 15.7983 113.088 15.651C113.36 15.5037 113.496 15.243 113.496 14.869V12.693L112.102 13.39C111.49 13.6847 111.042 13.9453 110.759 14.172C110.475 14.3987 110.334 14.682 110.334 15.022C110.334 15.328 110.43 15.549 110.623 15.685C110.827 15.8097 111.184 15.872 111.694 15.872ZM114.261 8.749C113.989 8.749 113.762 8.66967 113.581 8.511C113.411 8.341 113.326 8.07467 113.326 7.712C113.326 7.338 113.411 7.07167 113.581 6.913C113.762 6.743 113.989 6.658 114.261 6.658H114.55C114.822 6.658 115.043 6.743 115.213 6.913C115.394 7.07167 115.485 7.338 115.485 7.712C115.485 8.07467 115.394 8.341 115.213 8.511C115.043 8.66967 114.822 8.749 114.55 8.749H114.261ZM111.728 8.749C111.456 8.749 111.229 8.66967 111.048 8.511C110.878 8.341 110.793 8.07467 110.793 7.712C110.793 7.338 110.878 7.07167 111.048 6.913C111.229 6.743 111.456 6.658 111.728 6.658H112.017C112.289 6.658 112.51 6.743 112.68 6.913C112.861 7.07167 112.952 7.338 112.952 7.712C112.952 8.07467 112.861 8.341 112.68 8.511C112.51 8.66967 112.289 8.749 112.017 8.749H111.728ZM116.499 17.232L116.958 16.773H118.777V18.541L118.318 19H116.499V17.232ZM118.325 17.232L118.784 16.773H120.603V18.541L120.144 19H118.325V17.232ZM120.151 17.232L120.61 16.773H122.429V18.541L121.97 19H120.151V17.232ZM121.978 17.232L122.437 16.773H124.256V18.541L123.797 19H121.978V17.232ZM123.804 17.232L124.263 16.773H126.082V18.541L125.623 19H123.804V17.232ZM125.63 17.232L126.089 16.773H127.908V18.541L127.449 19H125.63V17.232ZM127.456 17.232L127.915 16.773H129.734V18.541L129.275 19H127.456V17.232ZM129.282 17.232L129.741 16.773H131.56V18.541L131.101 19H129.282V17.232ZM131.108 17.232L131.567 16.773H133.386V18.541L132.927 19H131.108V17.232ZM132.935 17.232L133.394 16.773H135.213V18.541L134.754 19H132.935V17.232ZM134.761 17.232L135.22 16.773H137.039V18.541L136.58 19H134.761V17.232ZM136.587 17.232L137.046 16.773H138.865V18.541L138.406 19H136.587V17.232ZM138.413 17.232L138.872 16.773H140.691V18.541L140.232 19H138.413V17.232ZM140.239 17.232L140.698 16.773H142.517V18.541L142.058 19H140.239V17.232ZM142.065 17.232L142.524 16.773H144.343V18.541L143.884 19H142.065V17.232ZM143.892 17.232L144.351 16.773H146.17V18.541L145.711 19H143.892V17.232ZM145.718 17.232L146.177 16.773H147.996V18.541L147.537 19H145.718V17.232ZM147.544 17.232L148.003 16.773H149.822V18.541L149.363 19H147.544V17.232ZM149.37 17.232L149.829 16.773H151.648V18.541L151.189 19H149.37V17.232ZM151.196 17.232L151.655 16.773H153.474V18.541L153.015 19H151.196V17.232ZM153.022 17.232L153.481 16.773H155.3V18.541L154.841 19H153.022V17.232ZM154.849 17.232L155.308 16.773H157.127V18.541L156.668 19H154.849V17.232ZM156.675 17.232L157.134 16.773H158.953V18.541L158.494 19H156.675V17.232ZM158.501 17.232L158.96 16.773H160.779V18.541L160.32 19H158.501V17.232ZM160.327 17.232L160.786 16.773H162.605V18.541L162.146 19H160.327V17.232ZM162.153 17.232L162.612 16.773H164.431V18.541L163.972 19H162.153V17.232ZM163.979 17.232L164.438 16.773H166.257V18.541L165.798 19H163.979V17.232ZM165.806 17.232L166.265 16.773H168.084V18.541L167.625 19H165.806V17.232ZM167.632 17.232L168.091 16.773H169.91V18.541L169.451 19H167.632V17.232ZM169.458 17.232L169.917 16.773H172.501C172.932 16.773 173.243 16.7163 173.436 16.603C173.629 16.4783 173.725 16.2743 173.725 15.991C173.725 15.7757 173.657 15.5887 173.521 15.43C173.396 15.2713 173.153 15.073 172.79 14.835L170.087 13.05V9.038L178.009 6.216V8.256L170.869 10.806V10.891L172.79 12.217C173.255 12.523 173.646 12.812 173.963 13.084C174.28 13.3447 174.535 13.6167 174.728 13.9C174.921 14.172 175.057 14.4553 175.136 14.75C175.227 15.0447 175.272 15.3677 175.272 15.719C175.272 16.8183 175.011 17.64 174.49 18.184C173.969 18.728 173.141 19 172.008 19H169.458V17.232ZM175.123 20.853H175.905C176.936 20.853 177.678 20.6093 178.132 20.122C178.585 19.6347 178.812 18.915 178.812 17.963C178.812 17.6797 178.795 17.385 178.761 17.079C178.727 16.7617 178.681 16.4387 178.625 16.11L178.336 14.359L184.269 13.679V15.498C184.269 16.0193 184.382 16.399 184.609 16.637C184.847 16.875 185.215 16.994 185.714 16.994C186.224 16.994 186.586 16.8863 186.802 16.671C187.028 16.4443 187.142 16.0533 187.142 15.498V14.359H188.825V15.498C188.825 16.008 188.904 16.3763 189.063 16.603C189.233 16.8297 189.476 16.943 189.794 16.943H190.015C190.604 16.943 190.899 16.5803 190.899 15.855C190.899 15.4923 190.842 14.9767 190.729 14.308L190.593 13.424L192.242 13.169L192.378 14.036C192.423 14.376 192.457 14.699 192.48 15.005C192.502 15.2997 192.514 15.583 192.514 15.855C192.514 18.0877 191.647 19.204 189.913 19.204C189.142 19.204 188.553 19.0283 188.145 18.677C187.748 18.3143 187.482 17.7703 187.346 17.045H187.261C187.057 18.4843 186.348 19.204 185.136 19.204C184.297 19.1927 183.662 18.932 183.232 18.422C182.812 17.912 182.597 17.1243 182.586 16.059L180.308 16.297C180.353 16.6143 180.381 16.909 180.393 17.181C180.415 17.453 180.427 17.6967 180.427 17.912C180.427 18.6713 180.336 19.3627 180.155 19.986C179.973 20.6207 179.696 21.1647 179.322 21.618C178.948 22.0827 178.477 22.4397 177.911 22.689C177.344 22.9497 176.681 23.08 175.922 23.08H175.123V20.853ZM189.114 12.795C188.853 12.795 188.632 12.7157 188.451 12.557C188.281 12.387 188.196 12.1207 188.196 11.758C188.196 11.384 188.281 11.1177 188.451 10.959C188.632 10.789 188.853 10.704 189.114 10.704H189.42C189.68 10.704 189.896 10.789 190.066 10.959C190.247 11.1177 190.338 11.384 190.338 11.758C190.338 12.1207 190.247 12.387 190.066 12.557C189.896 12.7157 189.68 12.795 189.42 12.795H189.114ZM186.581 12.795C186.309 12.795 186.082 12.7157 185.901 12.557C185.731 12.387 185.646 12.1207 185.646 11.758C185.646 11.384 185.731 11.1177 185.901 10.959C186.082 10.789 186.309 10.704 186.581 10.704H186.87C187.142 10.704 187.363 10.789 187.533 10.959C187.714 11.1177 187.805 11.384 187.805 11.758C187.805 12.1207 187.714 12.387 187.533 12.557C187.363 12.7157 187.142 12.795 186.87 12.795H186.581ZM187.856 10.449C187.584 10.449 187.363 10.3697 187.193 10.211C187.023 10.041 186.938 9.77467 186.938 9.412C186.938 9.04933 187.023 8.783 187.193 8.613C187.363 8.443 187.584 8.358 187.856 8.358H188.145C188.417 8.358 188.638 8.443 188.808 8.613C188.978 8.783 189.063 9.04933 189.063 9.412C189.063 9.77467 188.978 10.041 188.808 10.211C188.638 10.3697 188.417 10.449 188.145 10.449H187.856ZM63.5179 48.36C62.7899 48.36 62.1412 48.276 61.5719 48.108C61.0025 47.94 60.5172 47.6927 60.1159 47.366C59.7145 47.0487 59.4065 46.6567 59.1919 46.19C58.9865 45.7327 58.8839 45.21 58.8839 44.622C58.8839 44.202 58.9399 43.7353 59.0519 43.222C59.1732 42.7087 59.3365 42.2047 59.5419 41.71L60.7459 42.074C60.5685 42.466 60.4239 42.8673 60.3119 43.278C60.1999 43.6793 60.1439 44.034 60.1439 44.342C60.1439 44.986 60.3959 45.4853 60.8999 45.84C61.4039 46.204 62.1039 46.386 62.9999 46.386H64.0359C65.0345 46.386 65.8232 46.2507 66.4019 45.98C66.9899 45.7187 67.3119 45.3827 67.3679 44.972L64.0359 44.356V42.606H64.7919C65.3892 42.606 65.7999 42.5313 66.0239 42.382C66.2572 42.2327 66.3739 41.962 66.3739 41.57C66.3739 41.4207 66.3599 41.234 66.3319 41.01C66.3132 40.7767 66.2712 40.4687 66.2059 40.086L65.9819 38.826L67.3399 38.602L67.5499 39.876C67.5965 40.184 67.6339 40.492 67.6619 40.8C67.6899 41.0987 67.7039 41.3553 67.7039 41.57C67.7039 42.2793 67.4519 42.802 66.9479 43.138V43.208L67.3679 43.32C67.7786 43.4227 68.0912 43.6 68.3059 43.852C68.5299 44.104 68.6419 44.4307 68.6419 44.832C68.6419 45.3733 68.5252 45.8587 68.2919 46.288C68.0585 46.7267 67.7225 47.1 67.2839 47.408C66.8452 47.716 66.3086 47.9493 65.6739 48.108C65.0392 48.276 64.3205 48.36 63.5179 48.36ZM66.4439 37.328C66.2199 37.328 66.0332 37.2627 65.8839 37.132C65.7439 36.992 65.6739 36.7727 65.6739 36.474C65.6739 36.166 65.7439 35.9467 65.8839 35.816C66.0332 35.676 66.2199 35.606 66.4439 35.606H66.6819C66.9059 35.606 67.0879 35.676 67.2279 35.816C67.3772 35.9467 67.4519 36.166 67.4519 36.474C67.4519 36.7727 67.3772 36.992 67.2279 37.132C67.0879 37.2627 66.9059 37.328 66.6819 37.328H66.4439ZM64.4419 51.3C64.2179 51.3 64.0312 51.23 63.8819 51.09C63.7419 50.9593 63.6719 50.7447 63.6719 50.446C63.6719 50.138 63.7419 49.914 63.8819 49.774C64.0312 49.6433 64.2179 49.578 64.4419 49.578H64.6799C64.9039 49.578 65.0859 49.6433 65.2259 49.774C65.3752 49.914 65.4499 50.138 65.4499 50.446C65.4499 50.7447 65.3752 50.9593 65.2259 51.09C65.0859 51.23 64.9039 51.3 64.6799 51.3H64.4419ZM62.3559 51.3C62.1319 51.3 61.9452 51.23 61.7959 51.09C61.6559 50.9593 61.5859 50.7447 61.5859 50.446C61.5859 50.138 61.6559 49.914 61.7959 49.774C61.9452 49.6433 62.1319 49.578 62.3559 49.578H62.5939C62.8179 49.578 62.9999 49.6433 63.1399 49.774C63.2892 49.914 63.3639 50.138 63.3639 50.446C63.3639 50.7447 63.2892 50.9593 63.1399 51.09C62.9999 51.23 62.8179 51.3 62.5939 51.3H62.3559ZM69.1976 43.642L71.4936 43.082L70.3736 36.726L71.8296 36.46L72.9356 42.704C73.2716 42.592 73.547 42.4707 73.7616 42.34C73.9856 42.2093 74.163 42.0553 74.2936 41.878C74.4243 41.7007 74.513 41.4953 74.5596 41.262C74.6156 41.0193 74.6436 40.73 74.6436 40.394V34.64H76.1276V42.116C76.1276 42.816 76.4776 43.166 77.1776 43.166H77.7096V44.622L77.3316 45C76.4636 44.9907 75.829 44.776 75.4276 44.356C75.0263 43.9267 74.8256 43.2547 74.8256 42.34V42.088H74.7416C74.611 42.844 74.3916 43.4227 74.0836 43.824C73.7756 44.2253 73.3416 44.5007 72.7816 44.65L69.6316 45.42L69.1976 43.642ZM77.3339 43.544L77.7119 43.166H79.0279V43.096C78.7946 42.844 78.6079 42.5453 78.4679 42.2C78.3279 41.8547 78.2579 41.486 78.2579 41.094C78.2579 40.646 78.3326 40.2307 78.4819 39.848C78.6406 39.456 78.8552 39.12 79.1259 38.84C79.4059 38.5507 79.7279 38.3267 80.0919 38.168C80.4652 38 80.8666 37.916 81.2959 37.916C81.9866 37.916 82.5559 38.056 83.0039 38.336C83.4612 38.616 83.8392 39.008 84.1379 39.512L82.8779 40.688C82.6632 40.3613 82.4159 40.128 82.1359 39.988C81.8652 39.8387 81.5479 39.764 81.1839 39.764C80.6612 39.764 80.2552 39.8807 79.9659 40.114C79.6766 40.3473 79.5319 40.674 79.5319 41.094C79.5319 41.5793 79.7372 41.9667 80.1479 42.256C80.5586 42.536 81.1139 42.676 81.8139 42.676C82.0472 42.676 82.2899 42.662 82.5419 42.634C82.7939 42.5967 83.0319 42.5453 83.2559 42.48L84.5439 42.13L85.0059 43.782L83.0179 44.384C82.5979 44.5053 82.1966 44.608 81.8139 44.692C81.4406 44.7667 81.0392 44.8273 80.6099 44.874C80.1899 44.9207 79.7139 44.9533 79.1819 44.972C78.6592 44.9907 78.0432 45 77.3339 45V43.544ZM85.9855 43.18L88.4635 40.898L85.1035 37.538L86.1955 36.418L89.6115 39.834C89.8448 39.6007 90.0035 39.3673 90.0875 39.134C90.1808 38.8913 90.2275 38.5647 90.2275 38.154V34.64H91.7115V38.154C91.7115 38.434 91.6881 38.686 91.6415 38.91C91.6041 39.1247 91.5388 39.3347 91.4455 39.54C91.3521 39.736 91.2261 39.9273 91.0675 40.114C90.9088 40.3007 90.7128 40.4967 90.4795 40.702L91.0955 41.304C91.2821 41.4907 91.4361 41.6633 91.5575 41.822C91.6881 41.9807 91.7908 42.1393 91.8655 42.298C91.9495 42.4473 92.0055 42.6013 92.0335 42.76C92.0708 42.9187 92.0895 43.0867 92.0895 43.264C92.0895 43.5067 92.0475 43.7353 91.9635 43.95C91.8795 44.1553 91.7581 44.3373 91.5995 44.496C91.4501 44.6547 91.2681 44.7807 91.0535 44.874C90.8388 44.958 90.6008 45 90.3395 45H85.9855V43.18ZM89.3035 41.724L87.7215 43.11L87.7355 43.166H90.7595L89.3035 41.724ZM93.5239 34.64H95.0219V45H93.5239V34.64ZM104.313 48.262C102.82 48.262 101.681 47.9353 100.897 47.282C100.123 46.6287 99.7354 45.7047 99.7354 44.51C99.7354 44.09 99.7914 43.6233 99.9034 43.11C100.025 42.5967 100.188 42.0973 100.393 41.612L101.597 41.962C101.42 42.354 101.275 42.7553 101.163 43.166C101.051 43.5673 100.995 43.9267 100.995 44.244C100.995 44.888 101.243 45.3873 101.737 45.742C102.232 46.106 102.918 46.288 103.795 46.288H104.831C105.709 46.288 106.367 46.1853 106.805 45.98C107.253 45.784 107.538 45.4573 107.659 45H105.881C105.125 45 104.537 44.7853 104.117 44.356C103.707 43.9267 103.501 43.3293 103.501 42.564C103.501 42.0973 103.571 41.6633 103.711 41.262C103.851 40.8607 104.043 40.5107 104.285 40.212C104.537 39.9133 104.831 39.68 105.167 39.512C105.503 39.344 105.872 39.26 106.273 39.26C107.095 39.26 107.739 39.6053 108.205 40.296C108.681 40.9773 108.943 41.934 108.989 43.166H109.689V44.622L109.311 45H108.905C108.821 45.588 108.667 46.0873 108.443 46.498C108.229 46.9087 107.935 47.2447 107.561 47.506C107.197 47.7673 106.745 47.9587 106.203 48.08C105.671 48.2013 105.041 48.262 104.313 48.262ZM104.775 42.326C104.775 42.6247 104.878 42.8393 105.083 42.97C105.289 43.1007 105.587 43.166 105.979 43.166H107.729V43.11C107.729 42.494 107.58 42.004 107.281 41.64C106.983 41.276 106.595 41.094 106.119 41.094C105.718 41.094 105.391 41.2107 105.139 41.444C104.897 41.6773 104.775 41.9713 104.775 42.326ZM107.183 37.972C106.959 37.972 106.773 37.9067 106.623 37.776C106.483 37.636 106.413 37.4167 106.413 37.118C106.413 36.81 106.483 36.5907 106.623 36.46C106.773 36.32 106.959 36.25 107.183 36.25H107.421C107.645 36.25 107.827 36.32 107.967 36.46C108.117 36.5907 108.191 36.81 108.191 37.118C108.191 37.4167 108.117 37.636 107.967 37.776C107.827 37.9067 107.645 37.972 107.421 37.972H107.183ZM105.097 37.972C104.873 37.972 104.687 37.9067 104.537 37.776C104.397 37.636 104.327 37.4167 104.327 37.118C104.327 36.81 104.397 36.5907 104.537 36.46C104.687 36.32 104.873 36.25 105.097 36.25H105.335C105.559 36.25 105.741 36.32 105.881 36.46C106.031 36.5907 106.105 36.81 106.105 37.118C106.105 37.4167 106.031 37.636 105.881 37.776C105.741 37.9067 105.559 37.972 105.335 37.972H105.097ZM109.312 43.544L109.69 43.166H110.04C110.694 43.166 111.142 43.1007 111.384 42.97C111.636 42.83 111.762 42.5827 111.762 42.228C111.762 42.0787 111.748 41.892 111.72 41.668C111.702 41.4347 111.66 41.1267 111.594 40.744L111.37 39.484L112.742 39.26L112.938 40.52C112.985 40.8373 113.022 41.15 113.05 41.458C113.078 41.7567 113.092 42.0133 113.092 42.228C113.092 43.18 112.85 43.88 112.364 44.328C111.879 44.776 111.104 45 110.04 45H109.312V43.544ZM112.714 47.94C112.49 47.94 112.304 47.87 112.154 47.73C112.014 47.5993 111.944 47.3847 111.944 47.086C111.944 46.778 112.014 46.554 112.154 46.414C112.304 46.2833 112.49 46.218 112.714 46.218H112.952C113.176 46.218 113.358 46.2833 113.498 46.414C113.648 46.554 113.722 46.778 113.722 47.086C113.722 47.3847 113.648 47.5993 113.498 47.73C113.358 47.87 113.176 47.94 112.952 47.94H112.714ZM110.628 47.94C110.404 47.94 110.218 47.87 110.068 47.73C109.928 47.5993 109.858 47.3847 109.858 47.086C109.858 46.778 109.928 46.554 110.068 46.414C110.218 46.2833 110.404 46.218 110.628 46.218H110.866C111.09 46.218 111.272 46.2833 111.412 46.414C111.562 46.554 111.636 46.778 111.636 47.086C111.636 47.3847 111.562 47.5993 111.412 47.73C111.272 47.87 111.09 47.94 110.866 47.94H110.628ZM114.458 46.526H115.312C116.255 46.526 116.997 46.3907 117.538 46.12C118.089 45.8493 118.462 45.476 118.658 45H116.992C116.236 45 115.648 44.7853 115.228 44.356C114.808 43.9267 114.598 43.3293 114.598 42.564C114.598 42.0973 114.668 41.6633 114.808 41.262C114.948 40.8607 115.14 40.5107 115.382 40.212C115.634 39.9133 115.928 39.68 116.264 39.512C116.61 39.344 116.978 39.26 117.37 39.26C118.201 39.26 118.859 39.6053 119.344 40.296C119.83 40.9773 120.086 41.934 120.114 43.166H120.8V44.622L120.422 45H119.946C119.704 46.0733 119.204 46.8993 118.448 47.478C117.692 48.066 116.68 48.36 115.41 48.36H114.458V46.526ZM115.872 42.326C115.872 42.6247 115.975 42.8393 116.18 42.97C116.395 43.1007 116.698 43.166 117.09 43.166H118.826V43.012C118.826 42.424 118.677 41.9573 118.378 41.612C118.08 41.2667 117.692 41.094 117.216 41.094C116.824 41.094 116.502 41.2107 116.25 41.444C115.998 41.6773 115.872 41.9713 115.872 42.326ZM120.428 43.544L120.806 43.166H120.96C121.38 43.166 121.697 43.11 121.912 42.998C122.126 42.8767 122.313 42.6527 122.472 42.326L123.032 41.178L124.25 41.766L123.662 42.928C123.923 43.0587 124.184 43.1613 124.446 43.236C124.707 43.3107 124.968 43.348 125.23 43.348C125.64 43.348 125.939 43.2593 126.126 43.082C126.312 42.8953 126.406 42.5733 126.406 42.116V41.178H127.778V42.116C127.778 42.536 127.838 42.8393 127.96 43.026C128.09 43.2127 128.305 43.306 128.604 43.306H128.8C129.07 43.306 129.276 43.2127 129.416 43.026C129.556 42.8393 129.626 42.536 129.626 42.116V40.618H130.998V42.116C130.998 42.816 131.348 43.166 132.048 43.166H132.58V44.622L132.202 45C131.52 45 130.993 44.874 130.62 44.622C130.256 44.3607 130.022 43.95 129.92 43.39H129.836C129.78 44.006 129.616 44.4587 129.346 44.748C129.084 45.028 128.73 45.168 128.282 45.168C127.32 45.168 126.751 44.5753 126.574 43.39H126.49C126.415 43.9873 126.247 44.4353 125.986 44.734C125.724 45.0233 125.384 45.168 124.964 45.168C124.693 45.168 124.418 45.1167 124.138 45.014C123.858 44.9113 123.517 44.7387 123.116 44.496L122.78 44.3C122.509 44.5893 122.192 44.7807 121.828 44.874C121.464 44.958 120.997 45 120.428 45V43.544ZM132.199 43.544L132.577 43.166H133.011C133.776 43.166 134.159 42.816 134.159 42.116V40.058H135.531V42.116C135.531 42.816 135.881 43.166 136.581 43.166H137.113V44.622L136.735 45C136.016 45 135.466 44.86 135.083 44.58C134.7 44.3 134.444 43.8613 134.313 43.264H134.243C134.122 43.88 133.902 44.3233 133.585 44.594C133.277 44.8647 132.815 45 132.199 45V43.544ZM135.755 38.77C135.531 38.77 135.344 38.7047 135.195 38.574C135.055 38.434 134.985 38.2147 134.985 37.916C134.985 37.608 135.055 37.3887 135.195 37.258C135.344 37.118 135.531 37.048 135.755 37.048H135.993C136.217 37.048 136.399 37.118 136.539 37.258C136.688 37.3887 136.763 37.608 136.763 37.916C136.763 38.2147 136.688 38.434 136.539 38.574C136.399 38.7047 136.217 38.77 135.993 38.77H135.755ZM133.669 38.77C133.445 38.77 133.258 38.7047 133.109 38.574C132.969 38.434 132.899 38.2147 132.899 37.916C132.899 37.608 132.969 37.3887 133.109 37.258C133.258 37.118 133.445 37.048 133.669 37.048H133.907C134.131 37.048 134.313 37.118 134.453 37.258C134.602 37.3887 134.677 37.608 134.677 37.916C134.677 38.2147 134.602 38.434 134.453 38.574C134.313 38.7047 134.131 38.77 133.907 38.77H133.669ZM136.738 43.544L137.116 43.166H137.508C137.9 43.166 138.185 43.082 138.362 42.914C138.549 42.7367 138.642 42.4707 138.642 42.116V34.64H140.14V42.116C140.14 42.816 140.486 43.166 141.176 43.166H141.666V44.622L141.288 45C140.56 45 139.996 44.86 139.594 44.58C139.202 44.3 138.941 43.8613 138.81 43.264H138.726C138.614 43.88 138.404 44.3233 138.096 44.594C137.788 44.8647 137.336 45 136.738 45V43.544ZM141.291 43.544L141.669 43.166H142.229C142.602 43.166 142.859 43.0867 142.999 42.928C143.148 42.7693 143.223 42.522 143.223 42.186V34.64H144.707V42.186C144.707 43.1473 144.516 43.8567 144.133 44.314C143.76 44.762 143.125 44.9907 142.229 45H141.291V43.544Z" fill="white" fill-opacity="0.83"/>
<path d="M43.1559 75.63C42.8786 75.63 42.6749 75.5607 42.5449 75.422C42.4236 75.2747 42.3629 75.0883 42.3629 74.863V74.681C42.3629 74.3257 42.4669 73.9357 42.6749 73.511C42.8829 73.0777 43.1733 72.7007 43.5459 72.38H44.4169C44.1569 72.6573 43.9446 72.9217 43.7799 73.173C43.6239 73.4157 43.5113 73.6887 43.4419 73.992C43.6153 74.0353 43.7409 74.1177 43.8189 74.239C43.9056 74.3603 43.9489 74.5077 43.9489 74.681V74.863C43.9489 75.0883 43.8839 75.2747 43.7539 75.422C43.6326 75.5607 43.4333 75.63 43.1559 75.63ZM45.7819 75.63C45.5046 75.63 45.3009 75.5607 45.1709 75.422C45.0496 75.2747 44.9889 75.0883 44.9889 74.863V74.681C44.9889 74.3257 45.0929 73.9357 45.3009 73.511C45.5089 73.0777 45.7993 72.7007 46.1719 72.38H47.0429C46.7829 72.6573 46.5706 72.9217 46.4059 73.173C46.2499 73.4157 46.1373 73.6887 46.0679 73.992C46.2413 74.0353 46.3669 74.1177 46.4449 74.239C46.5316 74.3603 46.5749 74.5077 46.5749 74.681V74.863C46.5749 75.0883 46.5099 75.2747 46.3799 75.422C46.2586 75.5607 46.0593 75.63 45.7819 75.63ZM53.5941 82.117C53.2301 82.117 52.9008 82.0607 52.6061 81.948C52.3201 81.8353 52.0775 81.6837 51.8781 81.493C51.6788 81.2937 51.5271 81.064 51.4231 80.804C51.3191 80.5353 51.2671 80.245 51.2671 79.933C51.2671 79.4737 51.3798 79.023 51.6051 78.581C51.8305 78.139 52.1728 77.6667 52.6321 77.164L53.0741 76.657H54.2441L54.5951 77.034C55.0891 77.5627 55.4315 78.048 55.6221 78.49C55.8215 78.932 55.9211 79.3697 55.9211 79.803C55.9211 80.1323 55.8691 80.44 55.7651 80.726C55.6611 81.0033 55.5095 81.246 55.3101 81.454C55.1108 81.662 54.8638 81.8267 54.5691 81.948C54.2831 82.0607 53.9581 82.117 53.5941 82.117ZM53.7241 80.999C54.0968 80.999 54.4045 80.8863 54.6471 80.661C54.8898 80.4357 55.0111 80.1497 55.0111 79.803C55.0111 79.5517 54.9418 79.3003 54.8031 79.049C54.6645 78.789 54.4521 78.5073 54.1661 78.204L53.5811 77.58H53.5031L52.9701 78.204C52.7101 78.5073 52.5108 78.776 52.3721 79.01C52.2421 79.244 52.1771 79.4867 52.1771 79.738C52.1771 79.9113 52.2075 80.076 52.2681 80.232C52.3375 80.3793 52.4285 80.5093 52.5411 80.622C52.6538 80.7347 52.7881 80.8257 52.9441 80.895C53.1088 80.9643 53.2821 80.999 53.4641 80.999H53.7241ZM54.3871 75.097C54.2138 75.097 54.0751 75.0493 53.9711 74.954C53.8671 74.85 53.8151 74.6853 53.8151 74.46C53.8151 74.2347 53.8671 74.0743 53.9711 73.979C54.0751 73.875 54.2138 73.823 54.3871 73.823H54.5301C54.7035 73.823 54.8421 73.875 54.9461 73.979C55.0501 74.0743 55.1021 74.2347 55.1021 74.46C55.1021 74.6853 55.0501 74.85 54.9461 74.954C54.8421 75.0493 54.7035 75.097 54.5301 75.097H54.3871ZM52.7101 75.097C52.5368 75.097 52.3981 75.0493 52.2941 74.954C52.1901 74.85 52.1381 74.6853 52.1381 74.46C52.1381 74.2347 52.1901 74.0743 52.2941 73.979C52.3981 73.875 52.5368 73.823 52.7101 73.823H52.8531C53.0265 73.823 53.1651 73.875 53.2691 73.979C53.3731 74.0743 53.4251 74.2347 53.4251 74.46C53.4251 74.6853 53.3731 74.85 53.2691 74.954C53.1651 75.0493 53.0265 75.097 52.8531 75.097H52.7101ZM55.7293 84.002H56.2103C56.6869 84.002 57.0769 83.9327 57.3803 83.794C57.6836 83.6553 57.9219 83.469 58.0953 83.235C58.2686 83.0097 58.3899 82.741 58.4593 82.429C58.5286 82.1257 58.5633 81.805 58.5633 81.467C58.5633 81.2157 58.5503 80.9557 58.5243 80.687C58.4983 80.4097 58.4636 80.1453 58.4203 79.894L58.1473 78.425L59.0573 78.243L59.2133 79.179L61.5013 78.789V77.723H62.4113V79.972C62.4113 80.3013 62.5023 80.5353 62.6843 80.674C62.8663 80.8127 63.1479 80.882 63.5293 80.882H63.9843V81.74L63.7243 82H63.6983C63.2996 82 62.9616 81.9653 62.6843 81.896C62.4069 81.818 62.1773 81.701 61.9953 81.545C61.8219 81.3803 61.6963 81.168 61.6183 80.908C61.5403 80.648 61.5013 80.336 61.5013 79.972V79.868L59.3693 80.232C59.3866 80.4487 59.3996 80.661 59.4083 80.869C59.4256 81.077 59.4343 81.285 59.4343 81.493C59.4343 81.9697 59.3823 82.4247 59.2783 82.858C59.1743 83.3 58.9966 83.6857 58.7453 84.015C58.5026 84.353 58.1733 84.6217 57.7573 84.821C57.3499 85.0203 56.8343 85.12 56.2103 85.12H55.7293V84.002ZM61.8783 84.6C61.7049 84.6 61.5663 84.548 61.4623 84.444C61.3583 84.3487 61.3063 84.1883 61.3063 83.963C61.3063 83.7377 61.3583 83.573 61.4623 83.469C61.5663 83.3737 61.7049 83.326 61.8783 83.326H62.0213C62.1946 83.326 62.3333 83.3737 62.4373 83.469C62.5413 83.573 62.5933 83.7377 62.5933 83.963C62.5933 84.1883 62.5413 84.3487 62.4373 84.444C62.3333 84.548 62.1946 84.6 62.0213 84.6H61.8783ZM63.7268 81.142L63.9868 80.882H64.4288C64.8101 80.882 65.1611 80.869 65.4818 80.843C65.8111 80.817 66.1448 80.7693 66.4828 80.7C66.8208 80.622 67.1761 80.5137 67.5488 80.375C67.9301 80.2363 68.3592 80.0543 68.8358 79.829L70.0318 79.257V79.205L68.1078 78.776L65.4168 78.113V79.231H64.5068V78.23C64.5068 77.866 64.6065 77.593 64.8058 77.411C65.0138 77.2203 65.2738 77.125 65.5858 77.125C65.6811 77.125 65.7938 77.138 65.9238 77.164C66.0625 77.1813 66.2748 77.2247 66.5608 77.294L69.7328 78.113C70.2095 78.2343 70.6081 78.321 70.9288 78.373C71.2495 78.4163 71.5268 78.438 71.7608 78.438H71.9688V79.556H70.9808V79.712C70.9808 80.1453 71.0762 80.4487 71.2668 80.622C71.4575 80.7953 71.7521 80.882 72.1508 80.882H72.6058V81.74L72.3458 82C71.9645 82 71.6395 81.9653 71.3708 81.896C71.1021 81.8267 70.8811 81.714 70.7078 81.558C70.5432 81.3933 70.4175 81.1853 70.3308 80.934C70.2528 80.6827 70.2095 80.375 70.2008 80.011L69.1868 80.622C68.6495 80.9427 68.1728 81.1983 67.7568 81.389C67.3408 81.571 66.9508 81.7097 66.5868 81.805C66.2228 81.8917 65.8675 81.948 65.5208 81.974C65.1828 81.9913 64.8188 82 64.4288 82H63.7268V81.142ZM67.2108 75.643C67.0375 75.643 66.8988 75.5953 66.7948 75.5C66.6908 75.396 66.6388 75.2313 66.6388 75.006C66.6388 74.7807 66.6908 74.6203 66.7948 74.525C66.8988 74.421 67.0375 74.369 67.2108 74.369H67.3538C67.5271 74.369 67.6658 74.421 67.7698 74.525C67.8738 74.6203 67.9258 74.7807 67.9258 75.006C67.9258 75.2313 67.8738 75.396 67.7698 75.5C67.6658 75.5953 67.5271 75.643 67.3538 75.643H67.2108ZM72.3469 81.142L72.6069 80.882H72.9839C73.3999 80.882 73.6989 80.7867 73.8809 80.596C74.0716 80.4053 74.1669 80.102 74.1669 79.686V72.38H75.1289V79.686C75.1289 80.4833 74.9556 81.0683 74.6089 81.441C74.2709 81.8137 73.7293 82 72.9839 82H72.3469V81.142ZM77.0731 72.38H78.0351V82H77.0731V72.38ZM86.5886 85.12C85.332 85.12 84.3526 84.834 83.6506 84.262C82.9486 83.69 82.5976 82.8927 82.5976 81.87C82.5976 81.4713 82.6496 81.051 82.7536 80.609C82.8663 80.1583 83.018 79.712 83.2086 79.27L84.0146 79.517C83.85 79.855 83.7156 80.2103 83.6116 80.583C83.5076 80.947 83.4556 81.2937 83.4556 81.623C83.4556 82.3597 83.694 82.9317 84.1706 83.339C84.656 83.7463 85.332 83.95 86.1986 83.95H86.9786C87.4986 83.95 87.9623 83.8937 88.3696 83.781C88.777 83.677 89.1193 83.534 89.3966 83.352C89.6826 83.1787 89.8993 82.9837 90.0466 82.767C90.194 82.5503 90.2676 82.3293 90.2676 82.104V82.078L87.4596 81.454V80.388H87.9926C88.3653 80.388 88.6816 80.3577 88.9416 80.297C89.2016 80.2363 89.414 80.1367 89.5786 79.998C89.7433 79.8593 89.8603 79.6817 89.9296 79.465C89.999 79.2397 90.0336 78.9667 90.0336 78.646V78.23H89.9686C89.8473 78.516 89.6436 78.7413 89.3576 78.906C89.0803 79.0707 88.751 79.153 88.3696 79.153C87.6763 79.153 87.139 78.9753 86.7576 78.62C86.3763 78.2647 86.1856 77.762 86.1856 77.112C86.1856 76.7307 86.242 76.371 86.3546 76.033C86.476 75.695 86.6406 75.4003 86.8486 75.149C87.0566 74.8977 87.3036 74.6983 87.5896 74.551C87.8843 74.4037 88.205 74.33 88.5516 74.33C89.297 74.33 89.882 74.6507 90.3066 75.292C90.7313 75.9333 90.9436 76.8347 90.9436 77.996C90.9436 78.7413 90.8483 79.3523 90.6576 79.829C90.467 80.297 90.116 80.635 89.6046 80.843V80.895L90.3326 81.09C90.8613 81.2287 91.1256 81.5667 91.1256 82.104C91.1256 82.5113 91.0216 82.897 90.8136 83.261C90.6143 83.625 90.3196 83.9457 89.9296 84.223C89.5396 84.5003 89.063 84.717 88.4996 84.873C87.9363 85.0377 87.2993 85.12 86.5886 85.12ZM88.6296 78.009C89.0023 78.009 89.297 77.9787 89.5136 77.918C89.739 77.8487 89.9123 77.7447 90.0336 77.606C90.0163 76.9473 89.869 76.423 89.5916 76.033C89.3143 75.643 88.9416 75.448 88.4736 75.448C88.0316 75.448 87.6893 75.591 87.4466 75.877C87.2126 76.1543 87.0956 76.5227 87.0956 76.982C87.0956 77.346 87.1953 77.6103 87.3946 77.775C87.6026 77.931 87.9276 78.009 88.3696 78.009H88.6296ZM88.4736 72.77C88.3003 72.77 88.1616 72.7223 88.0576 72.627C87.9536 72.523 87.9016 72.3583 87.9016 72.133C87.9016 71.9077 87.9536 71.7473 88.0576 71.652C88.1616 71.548 88.3003 71.496 88.4736 71.496H88.6166C88.79 71.496 88.9286 71.548 89.0326 71.652C89.1366 71.7473 89.1886 71.9077 89.1886 72.133C89.1886 72.3583 89.1366 72.523 89.0326 72.627C88.9286 72.7223 88.79 72.77 88.6166 72.77H88.4736ZM87.3556 87.72C87.1823 87.72 87.0436 87.668 86.9396 87.564C86.8356 87.4687 86.7836 87.3083 86.7836 87.083C86.7836 86.8577 86.8356 86.693 86.9396 86.589C87.0436 86.4937 87.1823 86.446 87.3556 86.446H87.4986C87.672 86.446 87.8106 86.4937 87.9146 86.589C88.0186 86.693 88.0706 86.8577 88.0706 87.083C88.0706 87.3083 88.0186 87.4687 87.9146 87.564C87.8106 87.668 87.672 87.72 87.4986 87.72H87.3556ZM85.6786 87.72C85.5053 87.72 85.3666 87.668 85.2626 87.564C85.1586 87.4687 85.1066 87.3083 85.1066 87.083C85.1066 86.8577 85.1586 86.693 85.2626 86.589C85.3666 86.4937 85.5053 86.446 85.6786 86.446H85.8216C85.995 86.446 86.1336 86.4937 86.2376 86.589C86.3416 86.693 86.3936 86.8577 86.3936 87.083C86.3936 87.3083 86.3416 87.4687 86.2376 87.564C86.1336 87.668 85.995 87.72 85.8216 87.72H85.6786ZM98.7035 85.12C97.5682 85.12 96.6842 84.834 96.0515 84.262C95.4189 83.69 95.1025 82.8927 95.1025 81.87C95.1025 81.4713 95.1545 81.051 95.2585 80.609C95.3712 80.1583 95.5229 79.712 95.7135 79.27L96.5195 79.517C96.3549 79.855 96.2205 80.2103 96.1165 80.583C96.0125 80.947 95.9605 81.2937 95.9605 81.623C95.9605 82.3597 96.1685 82.9317 96.5845 83.339C97.0005 83.7463 97.5769 83.95 98.3135 83.95H99.0935C100.012 83.95 100.684 83.7637 101.109 83.391C101.542 83.027 101.759 82.4507 101.759 81.662C101.759 81.5233 101.754 81.3847 101.746 81.246C101.737 81.1073 101.72 80.9557 101.694 80.791C101.676 80.6177 101.646 80.427 101.603 80.219C101.568 80.011 101.525 79.777 101.473 79.517L101.252 78.438L102.162 78.256L102.357 79.335C102.417 79.673 102.465 79.9677 102.5 80.219C102.543 80.4617 102.573 80.6827 102.591 80.882H103.865V81.74L103.605 82H102.63C102.569 83.0747 102.222 83.8633 101.59 84.366C100.957 84.8687 99.9949 85.12 98.7035 85.12ZM98.8855 77.944C98.7122 77.944 98.5735 77.8963 98.4695 77.801C98.3655 77.697 98.3135 77.5323 98.3135 77.307C98.3135 77.0817 98.3655 76.9213 98.4695 76.826C98.5735 76.722 98.7122 76.67 98.8855 76.67H99.0285C99.2019 76.67 99.3405 76.722 99.4445 76.826C99.5485 76.9213 99.6005 77.0817 99.6005 77.307C99.6005 77.5323 99.5485 77.697 99.4445 77.801C99.3405 77.8963 99.2019 77.944 99.0285 77.944H98.8855ZM103.603 81.142L103.863 80.882C104.149 80.882 104.365 80.869 104.513 80.843C104.669 80.817 104.794 80.765 104.89 80.687C104.864 80.5917 104.846 80.4963 104.838 80.401C104.829 80.3057 104.825 80.2017 104.825 80.089C104.825 79.621 104.976 79.1963 105.28 78.815C105.592 78.425 106.06 78.0263 106.684 77.619L107.321 77.203H108.335L109.258 79.712C109.344 79.946 109.422 80.141 109.492 80.297C109.57 80.4443 109.652 80.5613 109.739 80.648C109.834 80.7347 109.934 80.7953 110.038 80.83C110.15 80.8647 110.28 80.882 110.428 80.882H110.675V81.74L110.415 82C110.007 82 109.682 81.9437 109.44 81.831C109.197 81.7097 108.98 81.4757 108.79 81.129L108.712 81.155V82H107.165C106.047 82 105.327 81.675 105.007 81.025H104.955C104.842 81.3543 104.686 81.6013 104.487 81.766C104.287 81.922 103.993 82 103.603 82V81.142ZM105.683 79.972C105.683 80.284 105.808 80.5137 106.06 80.661C106.311 80.8083 106.705 80.882 107.243 80.882H108.66C108.564 80.6827 108.46 80.427 108.348 80.115L107.62 78.152L107.126 78.451C106.736 78.685 106.398 78.9277 106.112 79.179C105.826 79.4303 105.683 79.6947 105.683 79.972ZM110.42 81.142L110.68 80.882H111.876C112.318 80.882 112.626 80.8387 112.799 80.752C112.981 80.6567 113.072 80.4963 113.072 80.271C113.072 80.2017 113.059 80.1323 113.033 80.063C113.016 79.985 112.981 79.9027 112.929 79.816C112.877 79.7207 112.808 79.6123 112.721 79.491C112.635 79.3697 112.522 79.2223 112.383 79.049L110.81 77.086V74.824L116.426 72.237V73.42L111.265 75.812V75.877L114.151 79.465C114.377 79.751 114.58 79.985 114.762 80.167C114.953 80.349 115.135 80.492 115.308 80.596C115.49 80.7 115.681 80.7737 115.88 80.817C116.08 80.8603 116.305 80.882 116.556 80.882V81.74L116.296 82C115.984 82 115.711 81.9783 115.477 81.935C115.252 81.8917 115.04 81.8137 114.84 81.701C114.65 81.5883 114.463 81.4323 114.281 81.233C114.099 81.0337 113.9 80.7823 113.683 80.479L113.462 80.167L113.41 80.193C113.419 80.2537 113.423 80.3143 113.423 80.375C113.432 80.427 113.436 80.479 113.436 80.531C113.436 80.9903 113.293 81.35 113.007 81.61C112.73 81.87 112.353 82 111.876 82H110.42V81.142ZM116.298 81.142L116.558 80.882H116.753C117.325 80.882 117.737 80.8127 117.988 80.674C118.248 80.5267 118.378 80.2493 118.378 79.842C118.378 79.686 118.365 79.4867 118.339 79.244C118.322 79.0013 118.278 78.6807 118.209 78.282L118.027 77.203L118.937 77.06L119.093 78.139C119.154 78.5637 119.197 78.9103 119.223 79.179C119.249 79.4477 119.262 79.6687 119.262 79.842C119.262 80.57 119.045 81.1117 118.612 81.467C118.187 81.8223 117.568 82 116.753 82H116.298V81.142ZM119.119 84.6C118.946 84.6 118.807 84.548 118.703 84.444C118.599 84.3487 118.547 84.1883 118.547 83.963C118.547 83.7377 118.599 83.573 118.703 83.469C118.807 83.3737 118.946 83.326 119.119 83.326H119.262C119.435 83.326 119.574 83.3737 119.678 83.469C119.782 83.573 119.834 83.7377 119.834 83.963C119.834 84.1883 119.782 84.3487 119.678 84.444C119.574 84.548 119.435 84.6 119.262 84.6H119.119ZM117.442 84.6C117.269 84.6 117.13 84.548 117.026 84.444C116.922 84.3487 116.87 84.1883 116.87 83.963C116.87 83.7377 116.922 83.573 117.026 83.469C117.13 83.3737 117.269 83.326 117.442 83.326H117.585C117.758 83.326 117.897 83.3737 118.001 83.469C118.105 83.573 118.157 83.7377 118.157 83.963C118.157 84.1883 118.105 84.3487 118.001 84.444C117.897 84.548 117.758 84.6 117.585 84.6H117.442ZM127.234 85.12C126.038 85.12 125.107 84.834 124.439 84.262C123.772 83.69 123.438 82.8927 123.438 81.87C123.438 81.4713 123.49 81.051 123.594 80.609C123.707 80.1583 123.859 79.712 124.049 79.27L124.855 79.517C124.691 79.855 124.556 80.2103 124.452 80.583C124.348 80.947 124.296 81.2937 124.296 81.623C124.296 82.3597 124.517 82.9317 124.959 83.339C125.41 83.7463 126.038 83.95 126.844 83.95H127.624C128.699 83.95 129.488 83.7637 129.99 83.391C130.493 83.027 130.744 82.4507 130.744 81.662V81.103H130.679C130.558 81.389 130.354 81.6143 130.068 81.779C129.791 81.9437 129.462 82.026 129.08 82.026C128.387 82.026 127.85 81.844 127.468 81.48C127.087 81.1073 126.896 80.5873 126.896 79.92C126.896 79.53 126.953 79.1617 127.065 78.815C127.187 78.4683 127.351 78.1693 127.559 77.918C127.767 77.658 128.014 77.4543 128.3 77.307C128.595 77.151 128.916 77.073 129.262 77.073C130.016 77.073 130.601 77.4327 131.017 78.152C131.442 78.8627 131.65 79.8593 131.641 81.142C131.633 82.5027 131.269 83.5037 130.549 84.145C129.839 84.795 128.734 85.12 127.234 85.12ZM129.34 80.882C129.713 80.882 130.008 80.8517 130.224 80.791C130.45 80.7217 130.623 80.6177 130.744 80.479C130.744 79.777 130.606 79.2223 130.328 78.815C130.051 78.399 129.67 78.191 129.184 78.191C128.742 78.191 128.4 78.3383 128.157 78.633C127.923 78.9277 127.806 79.3133 127.806 79.79C127.806 80.1713 127.906 80.4487 128.105 80.622C128.313 80.7953 128.638 80.882 129.08 80.882H129.34ZM129.99 75.513C129.817 75.513 129.678 75.4653 129.574 75.37C129.47 75.266 129.418 75.1013 129.418 74.876C129.418 74.6507 129.47 74.4903 129.574 74.395C129.678 74.291 129.817 74.239 129.99 74.239H130.133C130.307 74.239 130.445 74.291 130.549 74.395C130.653 74.4903 130.705 74.6507 130.705 74.876C130.705 75.1013 130.653 75.266 130.549 75.37C130.445 75.4653 130.307 75.513 130.133 75.513H129.99ZM128.313 75.513C128.14 75.513 128.001 75.4653 127.897 75.37C127.793 75.266 127.741 75.1013 127.741 74.876C127.741 74.6507 127.793 74.4903 127.897 74.395C128.001 74.291 128.14 74.239 128.313 74.239H128.456C128.63 74.239 128.768 74.291 128.872 74.395C128.976 74.4903 129.028 74.6507 129.028 74.876C129.028 75.1013 128.976 75.266 128.872 75.37C128.768 75.4653 128.63 75.513 128.456 75.513H128.313ZM131.444 84.002H131.925C132.402 84.002 132.792 83.9327 133.095 83.794C133.398 83.6553 133.637 83.469 133.81 83.235C133.983 83.0097 134.105 82.741 134.174 82.429C134.243 82.1257 134.278 81.805 134.278 81.467C134.278 81.2157 134.265 80.9557 134.239 80.687C134.213 80.4097 134.178 80.1453 134.135 79.894L133.862 78.425L134.772 78.243L134.941 79.231C135.08 80.0283 135.149 80.7823 135.149 81.493C135.149 81.9697 135.097 82.4247 134.993 82.858C134.889 83.3 134.711 83.6857 134.46 84.015C134.217 84.353 133.888 84.6217 133.472 84.821C133.065 85.0203 132.549 85.12 131.925 85.12H131.444V84.002ZM138.902 82C138.486 82 138.13 81.9653 137.836 81.896C137.55 81.8267 137.316 81.714 137.134 81.558C136.96 81.3933 136.835 81.181 136.757 80.921C136.679 80.661 136.64 80.3447 136.64 79.972V72.38H137.602V79.972C137.602 80.3013 137.693 80.5353 137.875 80.674C138.057 80.8127 138.338 80.882 138.72 80.882H139.175V81.74L138.915 82H138.902ZM138.908 81.142L139.168 80.882H141.053L141.079 80.83C140.637 80.4833 140.295 80.1107 140.052 79.712C139.81 79.3047 139.688 78.8323 139.688 78.295C139.688 77.9483 139.745 77.6233 139.857 77.32C139.97 77.0167 140.13 76.7523 140.338 76.527C140.546 76.293 140.793 76.111 141.079 75.981C141.374 75.8423 141.695 75.773 142.041 75.773C142.388 75.773 142.704 75.8423 142.99 75.981C143.285 76.111 143.536 76.2887 143.744 76.514C143.952 76.7393 144.113 77.008 144.225 77.32C144.338 77.6233 144.394 77.9483 144.394 78.295C144.394 78.8323 144.273 79.3047 144.03 79.712C143.788 80.1107 143.445 80.4833 143.003 80.83L143.029 80.882H144.914V81.74L144.654 82H144.472C144.03 82 143.606 81.9523 143.198 81.857C142.791 81.753 142.405 81.6013 142.041 81.402C141.677 81.6013 141.292 81.753 140.884 81.857C140.477 81.9523 140.052 82 139.61 82H138.908V81.142ZM142.041 80.492C142.483 80.2493 142.834 79.9633 143.094 79.634C143.354 79.296 143.484 78.893 143.484 78.425C143.484 77.957 143.359 77.5843 143.107 77.307C142.856 77.0297 142.522 76.891 142.106 76.891H141.976C141.56 76.891 141.227 77.0297 140.975 77.307C140.724 77.5843 140.598 77.957 140.598 78.425C140.598 78.893 140.728 79.296 140.988 79.634C141.248 79.9633 141.599 80.2493 142.041 80.492ZM141.963 74.213C141.79 74.213 141.651 74.1653 141.547 74.07C141.443 73.966 141.391 73.8013 141.391 73.576C141.391 73.3507 141.443 73.1903 141.547 73.095C141.651 72.991 141.79 72.939 141.963 72.939H142.106C142.28 72.939 142.418 72.991 142.522 73.095C142.626 73.1903 142.678 73.3507 142.678 73.576C142.678 73.8013 142.626 73.966 142.522 74.07C142.418 74.1653 142.28 74.213 142.106 74.213H141.963ZM144.659 81.142L144.919 80.882H145.296C145.712 80.882 146.011 80.7867 146.193 80.596C146.384 80.4053 146.479 80.102 146.479 79.686V72.38H147.441V79.686C147.441 80.4833 147.268 81.0683 146.921 81.441C146.583 81.8137 146.042 82 145.296 82H144.659V81.142ZM149.386 72.38H150.348V82H149.386V72.38ZM156.106 75.63C155.829 75.63 155.625 75.5607 155.495 75.422C155.374 75.2747 155.313 75.0883 155.313 74.863V74.681C155.313 74.3257 155.417 73.9357 155.625 73.511C155.833 73.0777 156.123 72.7007 156.496 72.38H157.367C157.107 72.6573 156.895 72.9217 156.73 73.173C156.574 73.4157 156.461 73.6887 156.392 73.992C156.565 74.0353 156.691 74.1177 156.769 74.239C156.856 74.3603 156.899 74.5077 156.899 74.681V74.863C156.899 75.0883 156.834 75.2747 156.704 75.422C156.583 75.5607 156.383 75.63 156.106 75.63ZM158.732 75.63C158.455 75.63 158.251 75.5607 158.121 75.422C158 75.2747 157.939 75.0883 157.939 74.863V74.681C157.939 74.3257 158.043 73.9357 158.251 73.511C158.459 73.0777 158.749 72.7007 159.122 72.38H159.993C159.733 72.6573 159.521 72.9217 159.356 73.173C159.2 73.4157 159.087 73.6887 159.018 73.992C159.191 74.0353 159.317 74.1177 159.395 74.239C159.482 74.3603 159.525 74.5077 159.525 74.681V74.863C159.525 75.0883 159.46 75.2747 159.33 75.422C159.209 75.5607 159.009 75.63 158.732 75.63Z" fill="white" fill-opacity="0.83"/>
</svg>
