<svg width="203" height="46" viewBox="0 0 203 46" fill="none" xmlns="http://www.w3.org/2000/svg">
<path d="M3.63423 16C2.51223 16 1.68489 15.7507 1.15223 15.252C0.630893 14.7533 0.370227 13.926 0.370227 12.77V3.42H2.18923V12.532C2.18923 13.0193 2.29123 13.348 2.49523 13.518C2.71056 13.688 3.07323 13.773 3.58323 13.773H4.11023V15.541L3.65123 16H3.63423ZM3.65428 14.232L4.11328 13.773H4.53828C5.33161 13.773 5.87561 13.6937 6.17028 13.535C6.47628 13.365 6.62928 13.0647 6.62928 12.634C6.62928 12.4527 6.61228 12.226 6.57828 11.954C6.55561 11.6707 6.50461 11.2967 6.42528 10.832L6.15328 9.302L7.81928 9.03L8.05728 10.56C8.11395 10.9453 8.15928 11.325 8.19328 11.699C8.22728 12.0617 8.24428 12.3733 8.24428 12.634C8.24428 13.79 7.94961 14.64 7.36028 15.184C6.77095 15.728 5.83028 16 4.53828 16H3.65428V14.232ZM7.78528 19.57C7.51328 19.57 7.28661 19.485 7.10528 19.315C6.93528 19.1563 6.85028 18.8957 6.85028 18.533C6.85028 18.159 6.93528 17.887 7.10528 17.717C7.28661 17.5583 7.51328 17.479 7.78528 17.479H8.07428C8.34628 17.479 8.56728 17.5583 8.73728 17.717C8.91861 17.887 9.00928 18.159 9.00928 18.533C9.00928 18.8957 8.91861 19.1563 8.73728 19.315C8.56728 19.485 8.34628 19.57 8.07428 19.57H7.78528ZM5.25228 19.57C4.98028 19.57 4.75361 19.485 4.57228 19.315C4.40228 19.1563 4.31728 18.8957 4.31728 18.533C4.31728 18.159 4.40228 17.887 4.57228 17.717C4.75361 17.5583 4.98028 17.479 5.25228 17.479H5.54128C5.81328 17.479 6.03428 17.5583 6.20428 17.717C6.38561 17.887 6.47628 18.159 6.47628 18.533C6.47628 18.8957 6.38561 19.1563 6.20428 19.315C6.03428 19.485 5.81328 19.57 5.54128 19.57H5.25228ZM11.4967 16C10.8167 16 10.2897 15.8243 9.91573 15.473C9.54173 15.1103 9.35473 14.555 9.35473 13.807V12.617H11.0887V13.773H13.4007C13.8994 13.773 14.2451 13.722 14.4377 13.62C14.6417 13.5067 14.7437 13.314 14.7437 13.042C14.7437 12.9173 14.7154 12.7643 14.6587 12.583C14.6134 12.4017 14.5454 12.1977 14.4547 11.971L12.9247 7.619L14.8117 6.939L16.5287 11.818C16.6647 12.2147 16.7951 12.5377 16.9197 12.787C17.0557 13.0363 17.1917 13.2347 17.3277 13.382C17.4637 13.5293 17.6111 13.6313 17.7697 13.688C17.9397 13.7447 18.1267 13.773 18.3307 13.773H18.8237V15.541L18.3647 16C17.9341 16 17.5601 15.966 17.2427 15.898C16.9254 15.83 16.6421 15.7167 16.3927 15.558C16.1434 15.3993 15.9167 15.1897 15.7127 14.929C15.5201 14.657 15.3331 14.317 15.1517 13.909L15.0837 13.926C14.9591 14.674 14.7211 15.2067 14.3697 15.524C14.0297 15.8413 13.4971 16 12.7717 16H11.4967ZM18.3633 14.232L18.8223 13.773H20.6413V15.541L20.1823 16H18.3633V14.232ZM20.1894 14.232L20.6484 13.773H22.4674V15.541L22.0084 16H20.1894V14.232ZM22.0156 14.232L22.4746 13.773H24.2936V15.541L23.8346 16H22.0156V14.232ZM23.8418 14.232L24.3008 13.773H26.1198V15.541L25.6608 16H23.8418V14.232ZM25.668 14.232L26.127 13.773H27.946V15.541L27.487 16H25.668V14.232ZM27.4941 14.232L27.9531 13.773H29.7721V15.541L29.3131 16H27.4941V14.232ZM29.3203 14.232L29.7793 13.773H31.5983V15.541L31.1393 16H29.3203V14.232ZM31.1465 14.232L31.6055 13.773H33.4245V15.541L32.9655 16H31.1465V14.232ZM32.9726 14.232L33.4316 13.773H35.2506V15.541L34.7916 16H32.9726V14.232ZM34.7988 14.232L35.2578 13.773H37.0768V15.541L36.6178 16H34.7988V14.232ZM36.625 14.232L37.084 13.773H38.903V15.541L38.444 16H36.625V14.232ZM38.4512 14.232L38.9102 13.773H40.7292V15.541L40.2702 16H38.4512V14.232ZM40.2773 14.232L40.7363 13.773H42.5553V15.541L42.0963 16H40.2773V14.232ZM42.1035 14.232L42.5625 13.773H44.3815V15.541L43.9225 16H42.1035V14.232ZM43.9297 14.232L44.3887 13.773H46.2077V15.541L45.7487 16H43.9297V14.232ZM45.7558 14.232L46.2148 13.773H48.0338V15.541L47.5748 16H45.7558V14.232ZM47.582 14.232L48.041 13.773H49.86V15.541L49.401 16H47.582V14.232ZM49.4082 14.232L49.8672 13.773H51.6862V15.541L51.2272 16H49.4082V14.232ZM51.2344 14.232L51.6934 13.773H53.5124V15.541L53.0534 16H51.2344V14.232ZM53.0605 14.232L53.5195 13.773H55.3385V15.541L54.8795 16H53.0605V14.232ZM54.8867 14.232L55.3457 13.773H57.1647V15.541L56.7057 16H54.8867V14.232ZM56.7129 14.232L57.1719 13.773H58.9909V15.541L58.5319 16H56.7129V14.232ZM58.539 14.232L58.998 13.773H60.817V15.541L60.358 16H58.539V14.232ZM60.3652 14.232L60.8242 13.773H62.6432V15.541L62.1842 16H60.3652V14.232ZM62.1914 14.232L62.6504 13.773H64.4694V15.541L64.0104 16H62.1914V14.232ZM64.0176 14.232L64.4766 13.773H66.2956V15.541L65.8366 16H64.0176V14.232ZM65.8437 14.232L66.3027 13.773H68.1217V15.541L67.6627 16H65.8437V14.232ZM67.6699 14.232L68.1289 13.773H68.6559C69.5852 13.773 70.0499 13.348 70.0499 12.498V9.999H71.7159V12.498C71.7159 13.348 72.1409 13.773 72.9909 13.773H73.6369V15.541L73.1779 16C72.3052 16 71.6366 15.83 71.1719 15.49C70.7072 15.15 70.3956 14.6173 70.2369 13.892H70.1519C70.0046 14.64 69.7382 15.1783 69.3529 15.507C68.9789 15.8357 68.4179 16 67.6699 16V14.232ZM72.0049 19.57C71.7329 19.57 71.5062 19.485 71.3249 19.315C71.1549 19.1563 71.0699 18.8957 71.0699 18.533C71.0699 18.159 71.1549 17.887 71.3249 17.717C71.5062 17.5583 71.7329 17.479 72.0049 17.479H72.2939C72.5659 17.479 72.7869 17.5583 72.9569 17.717C73.1382 17.887 73.2289 18.159 73.2289 18.533C73.2289 18.8957 73.1382 19.1563 72.9569 19.315C72.7869 19.485 72.5659 19.57 72.2939 19.57H72.0049ZM69.4719 19.57C69.1999 19.57 68.9732 19.485 68.7919 19.315C68.6219 19.1563 68.5369 18.8957 68.5369 18.533C68.5369 18.159 68.6219 17.887 68.7919 17.717C68.9732 17.5583 69.1999 17.479 69.4719 17.479H69.7609C70.0329 17.479 70.2539 17.5583 70.4239 17.717C70.6052 17.887 70.6959 18.159 70.6959 18.533C70.6959 18.8957 70.6052 19.1563 70.4239 19.315C70.2539 19.485 70.0329 19.57 69.7609 19.57H69.4719ZM75.6126 15.031C75.352 15.3937 75.0346 15.6487 74.6606 15.796C74.2866 15.932 73.7936 16 73.1816 16V14.232L73.6406 13.773C74.0713 13.773 74.383 13.6937 74.5756 13.535C74.7683 13.3763 74.9383 13.1043 75.0856 12.719L75.5616 11.529C75.6976 11.1777 75.8563 10.849 76.0376 10.543C76.219 10.237 76.4286 9.97633 76.6666 9.761C76.9046 9.53433 77.1766 9.35867 77.4826 9.234C77.7886 9.10933 78.14 9.047 78.5366 9.047C79.5226 9.047 80.2763 9.455 80.7976 10.271C81.319 11.087 81.5796 12.2147 81.5796 13.654V14.249L80.1516 16.374L75.6126 15.031ZM76.4626 12.974L79.9646 14.011V13.654C79.9646 12.906 79.8003 12.328 79.4716 11.92C79.1543 11.5007 78.7236 11.291 78.1796 11.291C77.783 11.291 77.46 11.3987 77.2106 11.614C76.9613 11.8293 76.763 12.141 76.6156 12.549L76.4626 12.974ZM90.5932 16C89.4712 16 88.6439 15.7507 88.1112 15.252C87.5899 14.7533 87.3292 13.926 87.3292 12.77V3.42H89.1482V12.532C89.1482 13.0193 89.2502 13.348 89.4542 13.518C89.6695 13.688 90.0322 13.773 90.5422 13.773H91.0692V15.541L90.6102 16H90.5932ZM90.6133 14.232L91.0723 13.773H91.5993C92.5286 13.773 92.9933 13.348 92.9933 12.498V9.999H94.6593V12.498C94.6593 13.348 95.0843 13.773 95.9343 13.773H96.5803V15.541L96.1213 16C95.2486 16 94.5799 15.83 94.1153 15.49C93.6506 15.15 93.3389 14.6173 93.1803 13.892H93.0953C92.9479 14.64 92.6816 15.1783 92.2963 15.507C91.9223 15.8357 91.3613 16 90.6133 16V14.232ZM94.9483 19.57C94.6763 19.57 94.4496 19.485 94.2683 19.315C94.0983 19.1563 94.0133 18.8957 94.0133 18.533C94.0133 18.159 94.0983 17.887 94.2683 17.717C94.4496 17.5583 94.6763 17.479 94.9483 17.479H95.2373C95.5093 17.479 95.7303 17.5583 95.9003 17.717C96.0816 17.887 96.1723 18.159 96.1723 18.533C96.1723 18.8957 96.0816 19.1563 95.9003 19.315C95.7303 19.485 95.5093 19.57 95.2373 19.57H94.9483ZM92.4153 19.57C92.1433 19.57 91.9166 19.485 91.7353 19.315C91.5653 19.1563 91.4803 18.8957 91.4803 18.533C91.4803 18.159 91.5653 17.887 91.7353 17.717C91.9166 17.5583 92.1433 17.479 92.4153 17.479H92.7043C92.9763 17.479 93.1973 17.5583 93.3673 17.717C93.5486 17.887 93.6393 18.159 93.6393 18.533C93.6393 18.8957 93.5486 19.1563 93.3673 19.315C93.1973 19.485 92.9763 19.57 92.7043 19.57H92.4153ZM96.125 14.232L96.584 13.773H98.403V15.541L97.944 16H96.125V14.232ZM97.9512 14.232L98.4102 13.773H100.229V15.541L99.7702 16H97.9512V14.232ZM99.7773 14.232L100.236 13.773H102.055V15.541L101.596 16H99.7773V14.232ZM101.603 14.232L102.062 13.773H103.882V15.541L103.423 16H101.603V14.232ZM103.43 14.232L103.889 13.773H105.708V15.541L105.249 16H103.43V14.232ZM105.256 14.232L105.715 13.773H107.534V15.541L107.075 16H105.256V14.232ZM107.082 14.232L107.541 13.773H109.36V15.541L108.901 16H107.082V14.232ZM108.908 14.232L109.367 13.773H111.186V15.541L110.727 16H108.908V14.232ZM110.734 14.232L111.193 13.773H113.012V15.541L112.553 16H110.734V14.232ZM112.561 14.232L113.02 13.773H114.839V15.541L114.38 16H112.561V14.232ZM114.387 14.232L114.846 13.773H116.665V15.541L116.206 16H114.387V14.232ZM116.213 14.232L116.672 13.773H118.491V15.541L118.032 16H116.213V14.232ZM118.039 14.232L118.498 13.773H120.317V15.541L119.858 16H118.039V14.232ZM119.865 14.232L120.324 13.773H122.143V15.541L121.684 16H119.865V14.232ZM121.691 14.232L122.15 13.773H123.969V15.541L123.51 16H121.691V14.232ZM123.518 14.232L123.977 13.773H125.796V15.541L125.337 16H123.518V14.232ZM125.344 14.232L125.803 13.773H127.622V15.541L127.163 16H125.344V14.232ZM127.17 14.232L127.629 13.773H129.448V15.541L128.989 16H127.17V14.232ZM128.996 14.232L129.455 13.773H131.274V15.541L130.815 16H128.996V14.232ZM133.253 15.031C132.993 15.3937 132.675 15.6487 132.301 15.796C131.927 15.932 131.434 16 130.822 16V14.232L131.281 13.773C131.712 13.773 132.024 13.6937 132.216 13.535C132.409 13.3763 132.579 13.1043 132.726 12.719L133.202 11.529C133.338 11.1777 133.497 10.849 133.678 10.543C133.86 10.237 134.069 9.97633 134.307 9.761C134.545 9.53433 134.817 9.35867 135.123 9.234C135.429 9.10933 135.781 9.047 136.177 9.047C137.163 9.047 137.917 9.455 138.438 10.271C138.96 11.087 139.22 12.2147 139.22 13.654V14.249L137.792 16.374L133.253 15.031ZM134.103 12.974L137.605 14.011V13.654C137.605 12.906 137.441 12.328 137.112 11.92C136.795 11.5007 136.364 11.291 135.82 11.291C135.424 11.291 135.101 11.3987 134.851 11.614C134.602 11.8293 134.404 12.141 134.256 12.549L134.103 12.974ZM140.391 17.853H141.513C142.964 17.853 144.029 17.581 144.709 17.037C145.389 16.5043 145.729 15.7903 145.729 14.895V14.47H145.627C145.469 14.9913 145.197 15.3823 144.811 15.643C144.437 15.8923 143.973 16.017 143.417 16.017C142.499 16.017 141.785 15.7563 141.275 15.235C140.765 14.7137 140.51 13.9827 140.51 13.042C140.51 12.4753 140.595 11.9483 140.765 11.461C140.935 10.9737 141.168 10.5487 141.462 10.186C141.768 9.82333 142.125 9.54 142.533 9.336C142.953 9.132 143.406 9.03 143.893 9.03C144.959 9.03 145.792 9.472 146.392 10.356C146.993 11.24 147.293 12.4697 147.293 14.045C147.293 14.997 147.174 15.8413 146.936 16.578C146.698 17.326 146.341 17.9607 145.865 18.482C145.389 19.0033 144.794 19.4 144.08 19.672C143.378 19.944 142.562 20.08 141.632 20.08H140.391V17.853ZM143.893 13.773C144.358 13.773 144.732 13.7503 145.015 13.705C145.31 13.6483 145.542 13.5577 145.712 13.433C145.69 12.7757 145.491 12.2487 145.117 11.852C144.743 11.4553 144.273 11.257 143.706 11.257C143.219 11.257 142.822 11.3987 142.516 11.682C142.222 11.9653 142.074 12.3223 142.074 12.753C142.074 13.1157 142.199 13.3763 142.448 13.535C142.698 13.6937 143.06 13.773 143.536 13.773H143.893ZM149.14 5.494H150.959V16H149.14V5.494ZM148.12 2.859H148.8L148.817 2.791C148.601 2.54167 148.494 2.24133 148.494 1.89C148.494 1.42533 148.658 1.04 148.987 0.733999C149.327 0.427999 149.752 0.274999 150.262 0.274999C150.568 0.274999 150.868 0.342999 151.163 0.478999C151.469 0.614999 151.718 0.796333 151.911 1.023L151.146 2.06C150.885 1.788 150.59 1.652 150.262 1.652C150.069 1.652 149.91 1.703 149.786 1.805C149.661 1.89567 149.599 2.009 149.599 2.145C149.599 2.553 149.995 2.757 150.789 2.757H151.996V4.134H148.12V2.859ZM164.463 16C163.431 15.9887 162.683 15.7563 162.219 15.303C161.765 14.8497 161.539 14.181 161.539 13.297V13.161H161.437C161.267 13.875 161.006 14.3793 160.655 14.674C160.315 14.9573 159.822 15.099 159.176 15.099C158.382 15.099 157.776 14.8893 157.357 14.47C156.949 14.0393 156.745 13.433 156.745 12.651C156.745 11.801 156.988 11.0983 157.476 10.543C157.974 9.98767 158.683 9.472 159.601 8.996L161.454 8.044V7.126H163.239V12.77C163.239 13.144 163.324 13.4047 163.494 13.552C163.675 13.6993 163.975 13.773 164.395 13.773H164.922V15.541L164.463 16ZM159.652 12.872C160.32 12.872 160.785 12.7983 161.046 12.651C161.318 12.5037 161.454 12.243 161.454 11.869V9.693L160.06 10.39C159.448 10.6847 159 10.9453 158.717 11.172C158.433 11.3987 158.292 11.682 158.292 12.022C158.292 12.328 158.388 12.549 158.581 12.685C158.785 12.8097 159.142 12.872 159.652 12.872ZM162.219 5.749C161.947 5.749 161.72 5.66967 161.539 5.511C161.369 5.341 161.284 5.07467 161.284 4.712C161.284 4.338 161.369 4.07167 161.539 3.913C161.72 3.743 161.947 3.658 162.219 3.658H162.508C162.78 3.658 163.001 3.743 163.171 3.913C163.352 4.07167 163.443 4.338 163.443 4.712C163.443 5.07467 163.352 5.341 163.171 5.511C163.001 5.66967 162.78 5.749 162.508 5.749H162.219ZM159.686 5.749C159.414 5.749 159.187 5.66967 159.006 5.511C158.836 5.341 158.751 5.07467 158.751 4.712C158.751 4.338 158.836 4.07167 159.006 3.913C159.187 3.743 159.414 3.658 159.686 3.658H159.975C160.247 3.658 160.468 3.743 160.638 3.913C160.819 4.07167 160.91 4.338 160.91 4.712C160.91 5.07467 160.819 5.341 160.638 5.511C160.468 5.66967 160.247 5.749 159.975 5.749H159.686ZM164.457 14.232L164.916 13.773H166.735V15.541L166.276 16H164.457V14.232ZM166.283 14.232L166.742 13.773H168.561V15.541L168.102 16H166.283V14.232ZM168.109 14.232L168.568 13.773H170.387V15.541L169.928 16H168.109V14.232ZM169.936 14.232L170.395 13.773H172.214V15.541L171.755 16H169.936V14.232ZM171.762 14.232L172.221 13.773H174.04V15.541L173.581 16H171.762V14.232ZM173.588 14.232L174.047 13.773H175.866V15.541L175.407 16H173.588V14.232ZM175.414 14.232L175.873 13.773H177.692V15.541L177.233 16H175.414V14.232ZM177.24 14.232L177.699 13.773H179.518V15.541L179.059 16H177.24V14.232ZM179.066 14.232L179.525 13.773H182.109C182.54 13.773 182.852 13.7163 183.044 13.603C183.237 13.4783 183.333 13.2743 183.333 12.991C183.333 12.7757 183.265 12.5887 183.129 12.43C183.005 12.2713 182.761 12.073 182.398 11.835L179.695 10.05V6.038L187.617 3.216V5.256L180.477 7.806V7.891L182.398 9.217C182.863 9.523 183.254 9.812 183.571 10.084C183.889 10.3447 184.144 10.6167 184.336 10.9C184.529 11.172 184.665 11.4553 184.744 11.75C184.835 12.0447 184.88 12.3677 184.88 12.719C184.88 13.8183 184.62 14.64 184.098 15.184C183.577 15.728 182.75 16 181.616 16H179.066V14.232ZM184.731 17.853H185.513C186.544 17.853 187.287 17.6093 187.74 17.122C188.193 16.6347 188.42 15.915 188.42 14.963C188.42 14.6797 188.403 14.385 188.369 14.079C188.335 13.7617 188.29 13.4387 188.233 13.11L187.944 11.359L193.877 10.679V12.498C193.877 13.0193 193.99 13.399 194.217 13.637C194.455 13.875 194.823 13.994 195.322 13.994C195.832 13.994 196.195 13.8863 196.41 13.671C196.637 13.4443 196.75 13.0533 196.75 12.498V11.359H198.433V12.498C198.433 13.008 198.512 13.3763 198.671 13.603C198.841 13.8297 199.085 13.943 199.402 13.943H199.623C200.212 13.943 200.507 13.5803 200.507 12.855C200.507 12.4923 200.45 11.9767 200.337 11.308L200.201 10.424L201.85 10.169L201.986 11.036C202.031 11.376 202.065 11.699 202.088 12.005C202.111 12.2997 202.122 12.583 202.122 12.855C202.122 15.0877 201.255 16.204 199.521 16.204C198.75 16.204 198.161 16.0283 197.753 15.677C197.356 15.3143 197.09 14.7703 196.954 14.045H196.869C196.665 15.4843 195.957 16.204 194.744 16.204C193.905 16.1927 193.271 15.932 192.84 15.422C192.421 14.912 192.205 14.1243 192.194 13.059L189.916 13.297C189.961 13.6143 189.99 13.909 190.001 14.181C190.024 14.453 190.035 14.6967 190.035 14.912C190.035 15.6713 189.944 16.3627 189.763 16.986C189.582 17.6207 189.304 18.1647 188.93 18.618C188.556 19.0827 188.086 19.4397 187.519 19.689C186.952 19.9497 186.289 20.08 185.53 20.08H184.731V17.853ZM198.722 9.795C198.461 9.795 198.24 9.71567 198.059 9.557C197.889 9.387 197.804 9.12067 197.804 8.758C197.804 8.384 197.889 8.11767 198.059 7.959C198.24 7.789 198.461 7.704 198.722 7.704H199.028C199.289 7.704 199.504 7.789 199.674 7.959C199.855 8.11767 199.946 8.384 199.946 8.758C199.946 9.12067 199.855 9.387 199.674 9.557C199.504 9.71567 199.289 9.795 199.028 9.795H198.722ZM196.189 9.795C195.917 9.795 195.69 9.71567 195.509 9.557C195.339 9.387 195.254 9.12067 195.254 8.758C195.254 8.384 195.339 8.11767 195.509 7.959C195.69 7.789 195.917 7.704 196.189 7.704H196.478C196.75 7.704 196.971 7.789 197.141 7.959C197.322 8.11767 197.413 8.384 197.413 8.758C197.413 9.12067 197.322 9.387 197.141 9.557C196.971 9.71567 196.75 9.795 196.478 9.795H196.189ZM197.464 7.449C197.192 7.449 196.971 7.36967 196.801 7.211C196.631 7.041 196.546 6.77467 196.546 6.412C196.546 6.04933 196.631 5.783 196.801 5.613C196.971 5.443 197.192 5.358 197.464 5.358H197.753C198.025 5.358 198.246 5.443 198.416 5.613C198.586 5.783 198.671 6.04933 198.671 6.412C198.671 6.77467 198.586 7.041 198.416 7.211C198.246 7.36967 198.025 7.449 197.753 7.449H197.464ZM3.7735 42.154C3.39083 42.154 3.10617 42.0607 2.9195 41.874C2.74217 41.678 2.6535 41.4307 2.6535 41.132V40.88C2.6535 40.5813 2.74217 40.334 2.9195 40.138C3.10617 39.942 3.39083 39.844 3.7735 39.844C4.1655 39.844 4.45017 39.942 4.6275 40.138C4.80483 40.334 4.8935 40.5813 4.8935 40.88V41.132C4.8935 41.4307 4.80483 41.678 4.6275 41.874C4.45017 42.0607 4.1655 42.154 3.7735 42.154ZM12.6891 42C11.8398 41.9907 11.2238 41.7993 10.8411 41.426C10.4678 41.0527 10.2811 40.502 10.2811 39.774V39.662H10.1971C10.0571 40.25 9.84243 40.6653 9.55309 40.908C9.27309 41.1413 8.86709 41.258 8.33509 41.258C7.68176 41.258 7.18243 41.0853 6.83709 40.74C6.50109 40.3853 6.33309 39.886 6.33309 39.242C6.33309 38.542 6.53376 37.9633 6.93509 37.506C7.34576 37.0487 7.92909 36.624 8.68509 36.232L10.2111 35.448V34.692H11.6811V39.34C11.6811 39.648 11.7511 39.8627 11.8911 39.984C12.0404 40.1053 12.2878 40.166 12.6331 40.166H13.0671V41.622L12.6891 42ZM8.72709 39.424C9.27776 39.424 9.66043 39.3633 9.87509 39.242C10.0991 39.1207 10.2111 38.906 10.2111 38.598V36.806L9.06309 37.38C8.55909 37.6227 8.19043 37.8373 7.95709 38.024C7.72376 38.2107 7.60709 38.444 7.60709 38.724C7.60709 38.976 7.68643 39.158 7.84509 39.27C8.01309 39.3727 8.30709 39.424 8.72709 39.424ZM10.8411 33.558C10.6171 33.558 10.4304 33.4927 10.2811 33.362C10.1411 33.222 10.0711 33.0027 10.0711 32.704C10.0711 32.396 10.1411 32.1767 10.2811 32.046C10.4304 31.906 10.6171 31.836 10.8411 31.836H11.0791C11.3031 31.836 11.4851 31.906 11.6251 32.046C11.7744 32.1767 11.8491 32.396 11.8491 32.704C11.8491 33.0027 11.7744 33.222 11.6251 33.362C11.4851 33.4927 11.3031 33.558 11.0791 33.558H10.8411ZM8.75509 33.558C8.53109 33.558 8.34443 33.4927 8.19509 33.362C8.05509 33.222 7.98509 33.0027 7.98509 32.704C7.98509 32.396 8.05509 32.1767 8.19509 32.046C8.34443 31.906 8.53109 31.836 8.75509 31.836H8.99309C9.21709 31.836 9.39909 31.906 9.53909 32.046C9.68843 32.1767 9.76309 32.396 9.76309 32.704C9.76309 33.0027 9.68843 33.222 9.53909 33.362C9.39909 33.4927 9.21709 33.558 8.99309 33.558H8.75509ZM12.6845 40.544L13.0625 40.166H13.8885C14.3738 40.166 14.8172 40.1567 15.2185 40.138C15.6198 40.1193 16.0025 40.082 16.3665 40.026C16.7305 39.9607 17.0945 39.8673 17.4585 39.746C17.8318 39.6247 18.2378 39.4567 18.6765 39.242L19.4185 38.878V38.808L17.2345 38.346L14.8825 37.758V38.864H13.4685V37.786C13.4685 36.6473 13.9912 36.078 15.0365 36.078C15.1018 36.078 15.1718 36.0827 15.2465 36.092C15.3212 36.092 15.4052 36.1013 15.4985 36.12C15.6012 36.1387 15.7225 36.1667 15.8625 36.204C16.0025 36.232 16.1705 36.274 16.3665 36.33L19.2785 37.086C19.6985 37.1887 20.1092 37.268 20.5105 37.324C20.9212 37.38 21.3085 37.408 21.6725 37.408H21.9385V39.256H20.9305C20.9305 39.592 21.0098 39.83 21.1685 39.97C21.3365 40.1007 21.6118 40.166 21.9945 40.166H22.4285V41.622L22.0505 42C21.3132 41.9907 20.7578 41.8273 20.3845 41.51C20.0112 41.1927 19.7872 40.684 19.7125 39.984L19.3485 40.222C18.7418 40.614 18.2005 40.9313 17.7245 41.174C17.2485 41.4073 16.7958 41.5847 16.3665 41.706C15.9465 41.8273 15.5358 41.9067 15.1345 41.944C14.7425 41.9813 14.3272 42 13.8885 42H12.6845V40.544ZM17.4025 44.94C17.1785 44.94 16.9918 44.87 16.8425 44.73C16.7025 44.5993 16.6325 44.3847 16.6325 44.086C16.6325 43.778 16.7025 43.554 16.8425 43.414C16.9918 43.2833 17.1785 43.218 17.4025 43.218H17.6405C17.8645 43.218 18.0465 43.2833 18.1865 43.414C18.3358 43.554 18.4105 43.778 18.4105 44.086C18.4105 44.3847 18.3358 44.5993 18.1865 44.73C18.0465 44.87 17.8645 44.94 17.6405 44.94H17.4025ZM24.0517 41.202C23.8371 41.5007 23.5757 41.7107 23.2677 41.832C22.9597 41.944 22.5537 42 22.0497 42V40.544L22.4277 40.166C22.7824 40.166 23.0391 40.1007 23.1977 39.97C23.3564 39.8393 23.4964 39.6153 23.6177 39.298L24.0097 38.318C24.1217 38.0287 24.2524 37.758 24.4017 37.506C24.5511 37.254 24.7237 37.0393 24.9197 36.862C25.1157 36.6753 25.3397 36.5307 25.5917 36.428C25.8437 36.3253 26.1331 36.274 26.4597 36.274C27.2717 36.274 27.8924 36.61 28.3217 37.282C28.7511 37.954 28.9657 38.8827 28.9657 40.068V40.558L27.7897 42.308L24.0517 41.202ZM24.7517 39.508L27.6357 40.362V40.068C27.6357 39.452 27.5004 38.976 27.2297 38.64C26.9684 38.2947 26.6137 38.122 26.1657 38.122C25.8391 38.122 25.5731 38.2107 25.3677 38.388C25.1624 38.5653 24.9991 38.822 24.8777 39.158L24.7517 39.508ZM28.6561 43.526H29.2021C30.0981 43.526 30.7374 43.3207 31.1201 42.91C31.5028 42.5087 31.6894 41.9207 31.6801 41.146C31.6801 40.9127 31.6661 40.67 31.6381 40.418C31.6101 40.1567 31.5728 39.8907 31.5261 39.62L31.2321 37.842L32.5901 37.618L32.7581 38.64L35.1101 38.248V37.058H36.4821V39.144C36.4821 39.5547 36.5754 39.83 36.7621 39.97C36.9488 40.1007 37.2381 40.166 37.6301 40.166H38.0641V41.622L37.6861 42H37.5741C36.8181 42 36.2441 41.8507 35.8521 41.552C35.4694 41.244 35.2361 40.74 35.1521 40.04L32.9961 40.39C33.0054 40.5207 33.0101 40.6467 33.0101 40.768C33.0194 40.8893 33.0241 41.0013 33.0241 41.104C33.0241 41.7293 32.9494 42.2987 32.8001 42.812C32.6508 43.3347 32.4174 43.7827 32.1001 44.156C31.7921 44.5387 31.3954 44.8327 30.9101 45.038C30.4341 45.2527 29.8694 45.36 29.2161 45.36H28.6561V43.526ZM35.6561 44.94C35.4321 44.94 35.2454 44.87 35.0961 44.73C34.9561 44.5993 34.8861 44.3847 34.8861 44.086C34.8861 43.778 34.9561 43.554 35.0961 43.414C35.2454 43.2833 35.4321 43.218 35.6561 43.218H35.8941C36.1181 43.218 36.3001 43.2833 36.4401 43.414C36.5894 43.554 36.6641 43.778 36.6641 44.086C36.6641 44.3847 36.5894 44.5993 36.4401 44.73C36.3001 44.87 36.1181 44.94 35.8941 44.94H35.6561ZM37.6904 40.544L38.0684 40.166H38.6284C39.0017 40.166 39.2584 40.0867 39.3984 39.928C39.5477 39.7693 39.6224 39.522 39.6224 39.186V31.64H41.1064V39.186C41.1064 40.1473 40.915 40.8567 40.5324 41.314C40.159 41.762 39.5244 41.9907 38.6284 42H37.6904V40.544ZM42.9155 31.64H44.4135V42H42.9155V31.64ZM45.7485 43.526H46.6725C47.8671 43.526 48.7445 43.302 49.3045 42.854C49.8645 42.4153 50.1445 41.8273 50.1445 41.09V40.74H50.0605C49.9298 41.1693 49.7058 41.4913 49.3885 41.706C49.0805 41.9113 48.6978 42.014 48.2405 42.014C47.4845 42.014 46.8965 41.7993 46.4765 41.37C46.0565 40.9407 45.8465 40.3387 45.8465 39.564C45.8465 39.0973 45.9165 38.6633 46.0565 38.262C46.1965 37.8607 46.3878 37.5107 46.6305 37.212C46.8825 36.9133 47.1765 36.68 47.5125 36.512C47.8578 36.344 48.2311 36.26 48.6325 36.26C49.5098 36.26 50.1958 36.624 50.6905 37.352C51.1851 38.08 51.4325 39.0927 51.4325 40.39C51.4325 41.174 51.3345 41.8693 51.1385 42.476C50.9425 43.092 50.6485 43.6147 50.2565 44.044C49.8645 44.4733 49.3745 44.8 48.7865 45.024C48.2078 45.248 47.5358 45.36 46.7705 45.36H45.7485V43.526ZM48.6325 40.166C49.0151 40.166 49.3231 40.1473 49.5565 40.11C49.7991 40.0633 49.9905 39.9887 50.1305 39.886C50.1118 39.3447 49.9485 38.9107 49.6405 38.584C49.3325 38.2573 48.9451 38.094 48.4785 38.094C48.0771 38.094 47.7505 38.2107 47.4985 38.444C47.2558 38.6773 47.1345 38.9713 47.1345 39.326C47.1345 39.6247 47.2371 39.8393 47.4425 39.97C47.6478 40.1007 47.9465 40.166 48.3385 40.166H48.6325ZM62.0856 42C61.2362 41.9907 60.6202 41.7993 60.2376 41.426C59.8642 41.0527 59.6776 40.502 59.6776 39.774V39.662H59.5936C59.4536 40.25 59.2389 40.6653 58.9496 40.908C58.6696 41.1413 58.2636 41.258 57.7316 41.258C57.0782 41.258 56.5789 41.0853 56.2336 40.74C55.8976 40.3853 55.7296 39.886 55.7296 39.242C55.7296 38.542 55.9302 37.9633 56.3316 37.506C56.7422 37.0487 57.3256 36.624 58.0816 36.232L59.6076 35.448V34.692H61.0776V39.34C61.0776 39.648 61.1476 39.8627 61.2876 39.984C61.4369 40.1053 61.6842 40.166 62.0296 40.166H62.4636V41.622L62.0856 42ZM58.1236 39.424C58.6742 39.424 59.0569 39.3633 59.2716 39.242C59.4956 39.1207 59.6076 38.906 59.6076 38.598V36.806L58.4596 37.38C57.9556 37.6227 57.5869 37.8373 57.3536 38.024C57.1202 38.2107 57.0036 38.444 57.0036 38.724C57.0036 38.976 57.0829 39.158 57.2416 39.27C57.4096 39.3727 57.7036 39.424 58.1236 39.424ZM60.2376 33.558C60.0136 33.558 59.8269 33.4927 59.6776 33.362C59.5376 33.222 59.4676 33.0027 59.4676 32.704C59.4676 32.396 59.5376 32.1767 59.6776 32.046C59.8269 31.906 60.0136 31.836 60.2376 31.836H60.4756C60.6996 31.836 60.8816 31.906 61.0216 32.046C61.1709 32.1767 61.2456 32.396 61.2456 32.704C61.2456 33.0027 61.1709 33.222 61.0216 33.362C60.8816 33.4927 60.6996 33.558 60.4756 33.558H60.2376ZM58.1516 33.558C57.9276 33.558 57.7409 33.4927 57.5916 33.362C57.4516 33.222 57.3816 33.0027 57.3816 32.704C57.3816 32.396 57.4516 32.1767 57.5916 32.046C57.7409 31.906 57.9276 31.836 58.1516 31.836H58.3896C58.6136 31.836 58.7956 31.906 58.9356 32.046C59.0849 32.1767 59.1596 32.396 59.1596 32.704C59.1596 33.0027 59.0849 33.222 58.9356 33.362C58.7956 33.4927 58.6136 33.558 58.3896 33.558H58.1516ZM62.081 40.544L62.459 40.166H63.775V40.096C63.5417 39.844 63.355 39.5453 63.215 39.2C63.075 38.8547 63.005 38.486 63.005 38.094C63.005 37.646 63.0797 37.2307 63.229 36.848C63.3877 36.456 63.6023 36.12 63.873 35.84C64.153 35.5507 64.475 35.3267 64.839 35.168C65.2123 35 65.6137 34.916 66.043 34.916C66.7337 34.916 67.303 35.056 67.751 35.336C68.2083 35.616 68.5863 36.008 68.885 36.512L67.625 37.688C67.4103 37.3613 67.163 37.128 66.883 36.988C66.6123 36.8387 66.295 36.764 65.931 36.764C65.4083 36.764 65.0023 36.8807 64.713 37.114C64.4237 37.3473 64.279 37.674 64.279 38.094C64.279 38.5793 64.4843 38.9667 64.895 39.256C65.3057 39.536 65.861 39.676 66.561 39.676C66.7943 39.676 67.037 39.662 67.289 39.634C67.541 39.5967 67.779 39.5453 68.003 39.48L69.291 39.13L69.753 40.782L67.765 41.384C67.345 41.5053 66.9437 41.608 66.561 41.692C66.1877 41.7667 65.7863 41.8273 65.357 41.874C64.937 41.9207 64.461 41.9533 63.929 41.972C63.4063 41.9907 62.7903 42 62.081 42V40.544ZM73.6445 42C72.7205 42 72.0392 41.7947 71.6005 41.384C71.1712 40.9733 70.9565 40.292 70.9565 39.34V31.64H72.4545V39.144C72.4545 39.5453 72.5385 39.816 72.7065 39.956C72.8839 40.096 73.1825 40.166 73.6025 40.166H74.0365V41.622L73.6585 42H73.6445ZM73.6611 40.544L74.0391 40.166H74.4731C75.2384 40.166 75.6211 39.816 75.6211 39.116V37.058H76.9931V39.116C76.9931 39.816 77.3431 40.166 78.0431 40.166H78.5751V41.622L78.1971 42C77.4784 42 76.9277 41.86 76.5451 41.58C76.1624 41.3 75.9057 40.8613 75.7751 40.264H75.7051C75.5837 40.88 75.3644 41.3233 75.0471 41.594C74.7391 41.8647 74.2771 42 73.6611 42V40.544ZM76.1811 44.94C75.9571 44.94 75.7704 44.87 75.6211 44.73C75.4811 44.5993 75.4111 44.3847 75.4111 44.086C75.4111 43.778 75.4811 43.554 75.6211 43.414C75.7704 43.2833 75.9571 43.218 76.1811 43.218H76.4191C76.6431 43.218 76.8251 43.2833 76.9651 43.414C77.1144 43.554 77.1891 43.778 77.1891 44.086C77.1891 44.3847 77.1144 44.5993 76.9651 44.73C76.8251 44.87 76.6431 44.94 76.4191 44.94H76.1811ZM88.2661 42C87.9301 42 87.6221 41.9627 87.3421 41.888C87.0715 41.8133 86.8148 41.678 86.5721 41.482C86.0028 41.8273 85.2001 42 84.1641 42H78.2001V40.544L78.5781 40.166H79.2361L79.6421 39.466V31.64H81.1261V35.672L80.9581 37.31L81.0421 37.352C81.5648 36.764 82.1061 36.3487 82.6661 36.106C83.2355 35.8633 83.8608 35.742 84.5421 35.742C85.5875 35.742 86.3761 36.0267 86.9081 36.596C87.4495 37.1653 87.7201 37.9587 87.7201 38.976C87.7201 39.1907 87.7061 39.396 87.6781 39.592C87.6595 39.7787 87.6268 39.9513 87.5801 40.11C87.6921 40.1287 87.8041 40.1427 87.9161 40.152C88.0281 40.1613 88.1448 40.166 88.2661 40.166H88.6441V41.622L88.2661 42ZM84.1641 40.166C84.9948 40.166 85.5828 40.082 85.9281 39.914C86.2735 39.7367 86.4461 39.41 86.4461 38.934C86.4461 38.4767 86.3108 38.136 86.0401 37.912C85.7695 37.688 85.3401 37.576 84.7521 37.576H84.3321C83.9215 37.576 83.5621 37.5993 83.2541 37.646C82.9461 37.6833 82.6615 37.7627 82.4001 37.884C82.1481 37.996 81.9148 38.1593 81.7001 38.374C81.4855 38.5793 81.2708 38.8453 81.0561 39.172L80.4541 40.082L80.4961 40.166H84.1641ZM88.2626 40.544L88.6406 40.166H89.2006C89.574 40.166 89.8306 40.0867 89.9706 39.928C90.12 39.7693 90.1946 39.522 90.1946 39.186V31.64H91.6786V39.186C91.6786 40.1473 91.4873 40.8567 91.1046 41.314C90.7313 41.762 90.0966 41.9907 89.2006 42H88.2626V40.544ZM93.4878 31.64H94.9858V42H93.4878V31.64ZM96.3207 43.526H97.2447C98.4394 43.526 99.3167 43.302 99.8767 42.854C100.437 42.4153 100.717 41.8273 100.717 41.09V40.74H100.633C100.502 41.1693 100.278 41.4913 99.9607 41.706C99.6527 41.9113 99.2701 42.014 98.8127 42.014C98.0567 42.014 97.4687 41.7993 97.0487 41.37C96.6287 40.9407 96.4187 40.3387 96.4187 39.564C96.4187 39.0973 96.4887 38.6633 96.6287 38.262C96.7687 37.8607 96.9601 37.5107 97.2027 37.212C97.4547 36.9133 97.7487 36.68 98.0847 36.512C98.4301 36.344 98.8034 36.26 99.2047 36.26C100.082 36.26 100.768 36.624 101.263 37.352C101.757 38.08 102.005 39.0927 102.005 40.39C102.005 41.174 101.907 41.8693 101.711 42.476C101.515 43.092 101.221 43.6147 100.829 44.044C100.437 44.4733 99.9467 44.8 99.3587 45.024C98.7801 45.248 98.1081 45.36 97.3427 45.36H96.3207V43.526ZM99.2047 40.166C99.5874 40.166 99.8954 40.1473 100.129 40.11C100.371 40.0633 100.563 39.9887 100.703 39.886C100.684 39.3447 100.521 38.9107 100.213 38.584C99.9047 38.2573 99.5174 38.094 99.0507 38.094C98.6494 38.094 98.3227 38.2107 98.0707 38.444C97.8281 38.6773 97.7067 38.9713 97.7067 39.326C97.7067 39.6247 97.8094 39.8393 98.0147 39.97C98.2201 40.1007 98.5187 40.166 98.9107 40.166H99.2047ZM112.658 42C111.809 41.9907 111.193 41.7993 110.81 41.426C110.437 41.0527 110.25 40.502 110.25 39.774V39.662H110.166C110.026 40.25 109.811 40.6653 109.522 40.908C109.242 41.1413 108.836 41.258 108.304 41.258C107.651 41.258 107.151 41.0853 106.806 40.74C106.47 40.3853 106.302 39.886 106.302 39.242C106.302 38.542 106.503 37.9633 106.904 37.506C107.315 37.0487 107.898 36.624 108.654 36.232L110.18 35.448V34.692H111.65V39.34C111.65 39.648 111.72 39.8627 111.86 39.984C112.009 40.1053 112.257 40.166 112.602 40.166H113.036V41.622L112.658 42ZM108.696 39.424C109.247 39.424 109.629 39.3633 109.844 39.242C110.068 39.1207 110.18 38.906 110.18 38.598V36.806L109.032 37.38C108.528 37.6227 108.159 37.8373 107.926 38.024C107.693 38.2107 107.576 38.444 107.576 38.724C107.576 38.976 107.655 39.158 107.814 39.27C107.982 39.3727 108.276 39.424 108.696 39.424ZM110.81 33.558C110.586 33.558 110.399 33.4927 110.25 33.362C110.11 33.222 110.04 33.0027 110.04 32.704C110.04 32.396 110.11 32.1767 110.25 32.046C110.399 31.906 110.586 31.836 110.81 31.836H111.048C111.272 31.836 111.454 31.906 111.594 32.046C111.743 32.1767 111.818 32.396 111.818 32.704C111.818 33.0027 111.743 33.222 111.594 33.362C111.454 33.4927 111.272 33.558 111.048 33.558H110.81ZM108.724 33.558C108.5 33.558 108.313 33.4927 108.164 33.362C108.024 33.222 107.954 33.0027 107.954 32.704C107.954 32.396 108.024 32.1767 108.164 32.046C108.313 31.906 108.5 31.836 108.724 31.836H108.962C109.186 31.836 109.368 31.906 109.508 32.046C109.657 32.1767 109.732 32.396 109.732 32.704C109.732 33.0027 109.657 33.222 109.508 33.362C109.368 33.4927 109.186 33.558 108.962 33.558H108.724ZM112.653 40.544L113.031 40.166H113.381C114.035 40.166 114.483 40.1007 114.725 39.97C114.977 39.83 115.103 39.5827 115.103 39.228C115.103 39.0787 115.089 38.892 115.061 38.668C115.043 38.4347 115.001 38.1267 114.935 37.744L114.711 36.484L116.083 36.26L116.279 37.52C116.326 37.8373 116.363 38.15 116.391 38.458C116.419 38.7567 116.433 39.0133 116.433 39.228C116.433 40.18 116.191 40.88 115.705 41.328C115.22 41.776 114.445 42 113.381 42H112.653V40.544ZM116.055 44.94C115.831 44.94 115.645 44.87 115.495 44.73C115.355 44.5993 115.285 44.3847 115.285 44.086C115.285 43.778 115.355 43.554 115.495 43.414C115.645 43.2833 115.831 43.218 116.055 43.218H116.293C116.517 43.218 116.699 43.2833 116.839 43.414C116.989 43.554 117.063 43.778 117.063 44.086C117.063 44.3847 116.989 44.5993 116.839 44.73C116.699 44.87 116.517 44.94 116.293 44.94H116.055ZM113.969 44.94C113.745 44.94 113.559 44.87 113.409 44.73C113.269 44.5993 113.199 44.3847 113.199 44.086C113.199 43.778 113.269 43.554 113.409 43.414C113.559 43.2833 113.745 43.218 113.969 43.218H114.207C114.431 43.218 114.613 43.2833 114.753 43.414C114.903 43.554 114.977 43.778 114.977 44.086C114.977 44.3847 114.903 44.5993 114.753 44.73C114.613 44.87 114.431 44.94 114.207 44.94H113.969ZM120.512 42C119.588 42 118.906 41.7947 118.468 41.384C118.038 40.9733 117.824 40.292 117.824 39.34V31.64H119.322V39.144C119.322 39.5453 119.406 39.816 119.574 39.956C119.751 40.096 120.05 40.166 120.47 40.166H120.904V41.622L120.526 42H120.512ZM120.528 40.544L120.906 40.166H122.222V40.096C121.989 39.844 121.802 39.5453 121.662 39.2C121.522 38.8547 121.452 38.486 121.452 38.094C121.452 37.646 121.527 37.2307 121.676 36.848C121.835 36.456 122.05 36.12 122.32 35.84C122.6 35.5507 122.922 35.3267 123.286 35.168C123.66 35 124.061 34.916 124.49 34.916C125.181 34.916 125.75 35.056 126.198 35.336C126.656 35.616 127.034 36.008 127.332 36.512L126.072 37.688C125.858 37.3613 125.61 37.128 125.33 36.988C125.06 36.8387 124.742 36.764 124.378 36.764C123.856 36.764 123.45 36.8807 123.16 37.114C122.871 37.3473 122.726 37.674 122.726 38.094C122.726 38.5793 122.932 38.9667 123.342 39.256C123.753 39.536 124.308 39.676 125.008 39.676C125.242 39.676 125.484 39.662 125.736 39.634C125.988 39.5967 126.226 39.5453 126.45 39.48L127.738 39.13L128.2 40.782L126.212 41.384C125.792 41.5053 125.391 41.608 125.008 41.692C124.635 41.7667 124.234 41.8273 123.804 41.874C123.384 41.9207 122.908 41.9533 122.376 41.972C121.854 41.9907 121.238 42 120.528 42V40.544ZM130.692 42C130.132 42 129.698 41.8553 129.39 41.566C129.082 41.2673 128.928 40.81 128.928 40.194V39.214H130.356V40.166H132.26C132.67 40.166 132.955 40.124 133.114 40.04C133.282 39.9467 133.366 39.788 133.366 39.564C133.366 39.4613 133.342 39.3353 133.296 39.186C133.258 39.0367 133.202 38.8687 133.128 38.682L131.868 35.098L133.422 34.538L134.836 38.556C134.948 38.8827 135.055 39.1487 135.158 39.354C135.27 39.5593 135.382 39.7227 135.494 39.844C135.606 39.9653 135.727 40.0493 135.858 40.096C135.998 40.1427 136.152 40.166 136.32 40.166H136.726V41.622L136.348 42C135.993 42 135.685 41.972 135.424 41.916C135.162 41.86 134.929 41.7667 134.724 41.636C134.518 41.5053 134.332 41.3327 134.164 41.118C134.005 40.894 133.851 40.614 133.702 40.278L133.646 40.292C133.543 40.908 133.347 41.3467 133.058 41.608C132.778 41.8693 132.339 42 131.742 42H130.692ZM136.347 40.544L136.725 40.166H137.285C137.658 40.166 137.915 40.0867 138.055 39.928C138.204 39.7693 138.279 39.522 138.279 39.186V31.64H139.763V39.186C139.763 40.1473 139.571 40.8567 139.189 41.314C138.815 41.762 138.181 41.9907 137.285 42H136.347V40.544ZM141.572 31.64H143.07V42H141.572V31.64ZM144.405 43.526H145.329C146.523 43.526 147.401 43.302 147.961 42.854C148.521 42.4153 148.801 41.8273 148.801 41.09V40.74H148.717C148.586 41.1693 148.362 41.4913 148.045 41.706C147.737 41.9113 147.354 42.014 146.897 42.014C146.141 42.014 145.553 41.7993 145.133 41.37C144.713 40.9407 144.503 40.3387 144.503 39.564C144.503 39.0973 144.573 38.6633 144.713 38.262C144.853 37.8607 145.044 37.5107 145.287 37.212C145.539 36.9133 145.833 36.68 146.169 36.512C146.514 36.344 146.887 36.26 147.289 36.26C148.166 36.26 148.852 36.624 149.347 37.352C149.841 38.08 150.089 39.0927 150.089 40.39C150.089 41.174 149.991 41.8693 149.795 42.476C149.599 43.092 149.305 43.6147 148.913 44.044C148.521 44.4733 148.031 44.8 147.443 45.024C146.864 45.248 146.192 45.36 145.427 45.36H144.405V43.526ZM147.289 40.166C147.671 40.166 147.979 40.1473 148.213 40.11C148.455 40.0633 148.647 39.9887 148.787 39.886C148.768 39.3447 148.605 38.9107 148.297 38.584C147.989 38.2573 147.601 38.094 147.135 38.094C146.733 38.094 146.407 38.2107 146.155 38.444C145.912 38.6773 145.791 38.9713 145.791 39.326C145.791 39.6247 145.893 39.8393 146.099 39.97C146.304 40.1007 146.603 40.166 146.995 40.166H147.289ZM159.006 45.262C157.512 45.262 156.374 44.9353 155.59 44.282C154.815 43.6287 154.428 42.7047 154.428 41.51C154.428 41.09 154.484 40.6233 154.596 40.11C154.717 39.5967 154.88 39.0973 155.086 38.612L156.29 38.962C156.112 39.354 155.968 39.7553 155.856 40.166C155.744 40.5673 155.688 40.9267 155.688 41.244C155.688 41.888 155.935 42.3873 156.43 42.742C156.924 43.106 157.61 43.288 158.488 43.288H159.524C160.401 43.288 161.059 43.1853 161.498 42.98C161.946 42.784 162.23 42.4573 162.352 42H160.574C159.818 42 159.23 41.7853 158.81 41.356C158.399 40.9267 158.194 40.3293 158.194 39.564C158.194 39.0973 158.264 38.6633 158.404 38.262C158.544 37.8607 158.735 37.5107 158.978 37.212C159.23 36.9133 159.524 36.68 159.86 36.512C160.196 36.344 160.564 36.26 160.966 36.26C161.787 36.26 162.431 36.6053 162.898 37.296C163.374 37.9773 163.635 38.934 163.682 40.166H164.382V41.622L164.004 42H163.598C163.514 42.588 163.36 43.0873 163.136 43.498C162.921 43.9087 162.627 44.2447 162.254 44.506C161.89 44.7673 161.437 44.9587 160.896 45.08C160.364 45.2013 159.734 45.262 159.006 45.262ZM159.468 39.326C159.468 39.6247 159.57 39.8393 159.776 39.97C159.981 40.1007 160.28 40.166 160.672 40.166H162.422V40.11C162.422 39.494 162.272 39.004 161.974 38.64C161.675 38.276 161.288 38.094 160.812 38.094C160.41 38.094 160.084 38.2107 159.832 38.444C159.589 38.6773 159.468 38.9713 159.468 39.326ZM161.876 34.972C161.652 34.972 161.465 34.9067 161.316 34.776C161.176 34.636 161.106 34.4167 161.106 34.118C161.106 33.81 161.176 33.5907 161.316 33.46C161.465 33.32 161.652 33.25 161.876 33.25H162.114C162.338 33.25 162.52 33.32 162.66 33.46C162.809 33.5907 162.884 33.81 162.884 34.118C162.884 34.4167 162.809 34.636 162.66 34.776C162.52 34.9067 162.338 34.972 162.114 34.972H161.876ZM159.79 34.972C159.566 34.972 159.379 34.9067 159.23 34.776C159.09 34.636 159.02 34.4167 159.02 34.118C159.02 33.81 159.09 33.5907 159.23 33.46C159.379 33.32 159.566 33.25 159.79 33.25H160.028C160.252 33.25 160.434 33.32 160.574 33.46C160.723 33.5907 160.798 33.81 160.798 34.118C160.798 34.4167 160.723 34.636 160.574 34.776C160.434 34.9067 160.252 34.972 160.028 34.972H159.79ZM164.005 40.544L164.383 40.166H164.733C165.386 40.166 165.834 40.1007 166.077 39.97C166.329 39.83 166.455 39.5827 166.455 39.228C166.455 39.0787 166.441 38.892 166.413 38.668C166.394 38.4347 166.352 38.1267 166.287 37.744L166.063 36.484L167.435 36.26L167.631 37.52C167.677 37.8373 167.715 38.15 167.743 38.458C167.771 38.7567 167.785 39.0133 167.785 39.228C167.785 40.18 167.542 40.88 167.057 41.328C166.571 41.776 165.797 42 164.733 42H164.005V40.544ZM167.407 44.94C167.183 44.94 166.996 44.87 166.847 44.73C166.707 44.5993 166.637 44.3847 166.637 44.086C166.637 43.778 166.707 43.554 166.847 43.414C166.996 43.2833 167.183 43.218 167.407 43.218H167.645C167.869 43.218 168.051 43.2833 168.191 43.414C168.34 43.554 168.415 43.778 168.415 44.086C168.415 44.3847 168.34 44.5993 168.191 44.73C168.051 44.87 167.869 44.94 167.645 44.94H167.407ZM165.321 44.94C165.097 44.94 164.91 44.87 164.761 44.73C164.621 44.5993 164.551 44.3847 164.551 44.086C164.551 43.778 164.621 43.554 164.761 43.414C164.91 43.2833 165.097 43.218 165.321 43.218H165.559C165.783 43.218 165.965 43.2833 166.105 43.414C166.254 43.554 166.329 43.778 166.329 44.086C166.329 44.3847 166.254 44.5993 166.105 44.73C165.965 44.87 165.783 44.94 165.559 44.94H165.321ZM169.151 43.526H170.005C170.947 43.526 171.689 43.3907 172.231 43.12C172.781 42.8493 173.155 42.476 173.351 42H171.685C170.929 42 170.341 41.7853 169.921 41.356C169.501 40.9267 169.291 40.3293 169.291 39.564C169.291 39.0973 169.361 38.6633 169.501 38.262C169.641 37.8607 169.832 37.5107 170.075 37.212C170.327 36.9133 170.621 36.68 170.957 36.512C171.302 36.344 171.671 36.26 172.063 36.26C172.893 36.26 173.551 36.6053 174.037 37.296C174.522 37.9773 174.779 38.934 174.807 40.166H175.493V41.622L175.115 42H174.639C174.396 43.0733 173.897 43.8993 173.141 44.478C172.385 45.066 171.372 45.36 170.103 45.36H169.151V43.526ZM170.565 39.326C170.565 39.6247 170.667 39.8393 170.873 39.97C171.087 40.1007 171.391 40.166 171.783 40.166H173.519V40.012C173.519 39.424 173.369 38.9573 173.071 38.612C172.772 38.2667 172.385 38.094 171.909 38.094C171.517 38.094 171.195 38.2107 170.943 38.444C170.691 38.6773 170.565 38.9713 170.565 39.326ZM175.12 40.544L175.498 40.166H175.652C176.072 40.166 176.389 40.11 176.604 39.998C176.819 39.8767 177.005 39.6527 177.164 39.326L177.724 38.178L178.942 38.766L178.354 39.928C178.615 40.0587 178.877 40.1613 179.138 40.236C179.399 40.3107 179.661 40.348 179.922 40.348C180.333 40.348 180.631 40.2593 180.818 40.082C181.005 39.8953 181.098 39.5733 181.098 39.116V38.178H182.47V39.116C182.47 39.536 182.531 39.8393 182.652 40.026C182.783 40.2127 182.997 40.306 183.296 40.306H183.492C183.763 40.306 183.968 40.2127 184.108 40.026C184.248 39.8393 184.318 39.536 184.318 39.116V37.618H185.69V39.116C185.69 39.816 186.04 40.166 186.74 40.166H187.272V41.622L186.894 42C186.213 42 185.685 41.874 185.312 41.622C184.948 41.3607 184.715 40.95 184.612 40.39H184.528C184.472 41.006 184.309 41.4587 184.038 41.748C183.777 42.028 183.422 42.168 182.974 42.168C182.013 42.168 181.443 41.5753 181.266 40.39H181.182C181.107 40.9873 180.939 41.4353 180.678 41.734C180.417 42.0233 180.076 42.168 179.656 42.168C179.385 42.168 179.11 42.1167 178.83 42.014C178.55 41.9113 178.209 41.7387 177.808 41.496L177.472 41.3C177.201 41.5893 176.884 41.7807 176.52 41.874C176.156 41.958 175.689 42 175.12 42V40.544ZM186.892 40.544L187.27 40.166H187.704C188.469 40.166 188.852 39.816 188.852 39.116V37.058H190.224V39.116C190.224 39.816 190.574 40.166 191.274 40.166H191.806V41.622L191.428 42C190.709 42 190.158 41.86 189.776 41.58C189.393 41.3 189.136 40.8613 189.006 40.264H188.936C188.814 40.88 188.595 41.3233 188.278 41.594C187.97 41.8647 187.508 42 186.892 42V40.544ZM190.448 35.77C190.224 35.77 190.037 35.7047 189.888 35.574C189.748 35.434 189.678 35.2147 189.678 34.916C189.678 34.608 189.748 34.3887 189.888 34.258C190.037 34.118 190.224 34.048 190.448 34.048H190.686C190.91 34.048 191.092 34.118 191.232 34.258C191.381 34.3887 191.456 34.608 191.456 34.916C191.456 35.2147 191.381 35.434 191.232 35.574C191.092 35.7047 190.91 35.77 190.686 35.77H190.448ZM188.362 35.77C188.138 35.77 187.951 35.7047 187.802 35.574C187.662 35.434 187.592 35.2147 187.592 34.916C187.592 34.608 187.662 34.3887 187.802 34.258C187.951 34.118 188.138 34.048 188.362 34.048H188.6C188.824 34.048 189.006 34.118 189.146 34.258C189.295 34.3887 189.37 34.608 189.37 34.916C189.37 35.2147 189.295 35.434 189.146 35.574C189.006 35.7047 188.824 35.77 188.6 35.77H188.362ZM191.431 40.544L191.809 40.166H192.201C192.593 40.166 192.877 40.082 193.055 39.914C193.241 39.7367 193.335 39.4707 193.335 39.116V31.64H194.833V39.116C194.833 39.816 195.178 40.166 195.869 40.166H196.359V41.622L195.981 42C195.253 42 194.688 41.86 194.287 41.58C193.895 41.3 193.633 40.8613 193.503 40.264H193.419C193.307 40.88 193.097 41.3233 192.789 41.594C192.481 41.8647 192.028 42 191.431 42V40.544ZM195.983 40.544L196.361 40.166H196.921C197.295 40.166 197.551 40.0867 197.691 39.928C197.841 39.7693 197.915 39.522 197.915 39.186V31.64H199.399V39.186C199.399 40.1473 199.208 40.8567 198.825 41.314C198.452 41.762 197.817 41.9907 196.921 42H195.983V40.544Z" fill="white" fill-opacity="0.83"/>
</svg>
